<svg width="300" height="301" viewBox="0 0 300 301" fill="none" xmlns="http://www.w3.org/2000/svg">
<path d="M262.118 57.0131C262.118 57.0131 239.965 26.4743 199.723 26.6933C159.481 26.9117 134.867 54.1787 107.276 70.0829C92.8265 78.4115 75.0719 78.1751 59.2601 83.3381C8.70294 99.8465 -2.89326 164.116 23.2001 196.471C45.7895 224.48 80.7083 236.072 131.259 233.294C181.81 230.516 217.488 230.266 258.514 194.71C299.539 159.155 288.589 97.5065 262.118 57.0131Z" fill="#5472DC"/>
<path opacity="0.7" d="M262.118 57.0131C262.118 57.0131 239.965 26.4743 199.723 26.6933C159.481 26.9117 134.867 54.1787 107.276 70.0829C92.8265 78.4115 75.0719 78.1751 59.2601 83.3381C8.70294 99.8465 -2.89326 164.116 23.2001 196.471C45.7895 224.48 80.7083 236.072 131.259 233.294C181.81 230.516 217.488 230.266 258.514 194.71C299.539 159.155 288.589 97.5065 262.118 57.0131Z" fill="white"/>
<path d="M51.4273 37.0553C50.1679 36.2801 48.6847 35.8337 47.0971 35.8337C43.1233 35.8337 39.8047 38.6345 39.0037 42.3695C38.0317 41.4131 36.6991 40.8215 35.2273 40.8215C32.2525 40.8215 29.8411 43.2329 29.8411 46.2077C29.8411 46.2749 29.8489 46.3403 29.8513 46.4075H60.6373H65.3557H74.1997" stroke="#B2B2B2" stroke-width="0.6" stroke-miterlimit="10" stroke-linecap="round" stroke-linejoin="round"/>
<path d="M79.7999 46.4065H107.437C106.814 45.3829 105.691 44.6971 104.405 44.6971C103.594 44.6971 102.849 44.9719 102.251 45.4297C101.492 43.2445 99.4205 41.6731 96.9767 41.6731C95.9795 41.6731 95.0453 41.9371 94.2347 42.3949C93.7355 36.8311 89.0627 32.4697 83.3687 32.4697C78.1307 32.4697 73.7561 36.1609 72.7007 41.0839C71.4191 39.8227 69.6629 39.0433 67.7231 39.0433C64.3601 39.0433 61.5497 41.3845 60.8165 44.5237C60.0449 43.4869 58.8119 42.8149 57.4205 42.8149C56.6639 42.8149 55.9553 43.0153 55.3403 43.3627C55.2131 41.9467 54.7301 40.6333 53.9807 39.5131" stroke="#B2B2B2" stroke-width="0.6" stroke-miterlimit="10" stroke-linecap="round" stroke-linejoin="round"/>
<path d="M203.4 163.651H221.385H226.103H268.183C267.561 162.628 266.438 161.942 265.152 161.942C264.341 161.942 263.596 162.217 262.998 162.675C262.239 160.489 260.167 158.918 257.724 158.918C256.726 158.918 255.792 159.182 254.982 159.64C254.482 154.076 249.81 149.715 244.116 149.715C243.326 149.715 242.556 149.799 241.813 149.958" stroke="#B2B2B2" stroke-width="0.6" stroke-miterlimit="10" stroke-linecap="round" stroke-linejoin="round"/>
<path d="M238.596 151.213C236.005 152.736 234.098 155.299 233.448 158.329C232.166 157.068 230.41 156.289 228.47 156.289C225.107 156.289 222.297 158.63 221.563 161.769C220.792 160.732 219.559 160.06 218.167 160.06C217.41 160.06 216.701 160.261 216.086 160.608C215.708 156.387 212.162 153.078 207.843 153.078C203.869 153.078 200.551 155.879 199.75 159.614C198.778 158.657 197.445 158.066 195.973 158.066C192.998 158.066 190.587 160.477 190.587 163.452C190.587 163.52 190.595 163.585 190.597 163.652H197.4" stroke="#B2B2B2" stroke-width="0.6" stroke-miterlimit="10" stroke-linecap="round" stroke-linejoin="round"/>
<path d="M287.4 202.794H12V209.25H287.4V202.794Z" fill="#B2B2B2"/>
<path d="M215.521 206.008V25.1997" stroke="#B2B2B2" stroke-width="1.2" stroke-miterlimit="10" stroke-linecap="round" stroke-linejoin="round"/>
<path d="M110.197 206.008V25.9321" stroke="#B2B2B2" stroke-width="1.2" stroke-miterlimit="10" stroke-linecap="round" stroke-linejoin="round"/>
<path d="M11.6376 139.203H287.405" stroke="#B2B2B2" stroke-width="1.2" stroke-miterlimit="10" stroke-linecap="round" stroke-linejoin="round"/>
<path d="M13.2 66.6628H291" stroke="#B2B2B2" stroke-width="1.2" stroke-miterlimit="10" stroke-linecap="round" stroke-linejoin="round"/>
<path d="M147.439 104.578L144.715 106.257" stroke="#B2B2B2" stroke-width="0.3" stroke-miterlimit="10" stroke-linecap="round" stroke-linejoin="round"/>
<path d="M193.367 76.2732L151.1 102.321" stroke="#B2B2B2" stroke-width="0.3" stroke-miterlimit="10" stroke-linecap="round" stroke-linejoin="round"/>
<path d="M198.944 78.0332L165.08 98.9024" stroke="#B2B2B2" stroke-width="0.3" stroke-miterlimit="10" stroke-linecap="round" stroke-linejoin="round"/>
<path d="M213.733 68.9192L203.506 75.2222" stroke="#B2B2B2" stroke-width="0.3" stroke-miterlimit="10" stroke-linecap="round" stroke-linejoin="round"/>
<g opacity="0.3">
<path d="M36.4643 194.44L33.7397 196.12" stroke="black" stroke-width="0.3" stroke-miterlimit="10" stroke-linecap="round" stroke-linejoin="round"/>
<path d="M82.392 166.136L40.125 192.184" stroke="#B2B2B2" stroke-width="0.3" stroke-miterlimit="10" stroke-linecap="round" stroke-linejoin="round"/>
<path d="M87.9684 167.896L54.1056 188.765" stroke="#B2B2B2" stroke-width="0.3" stroke-miterlimit="10" stroke-linecap="round" stroke-linejoin="round"/>
<path d="M102.758 158.781L92.5304 165.084" stroke="#B2B2B2" stroke-width="0.3" stroke-miterlimit="10" stroke-linecap="round" stroke-linejoin="round"/>
</g>
<path opacity="0.3" d="M191.288 196.606L188.563 198.286" stroke="black" stroke-width="0.3" stroke-miterlimit="10" stroke-linecap="round" stroke-linejoin="round"/>
<path d="M237.215 168.302L194.949 194.35" stroke="#B2B2B2" stroke-width="0.3" stroke-miterlimit="10" stroke-linecap="round" stroke-linejoin="round"/>
<path d="M242.792 170.062L208.929 190.93" stroke="#B2B2B2" stroke-width="0.3" stroke-miterlimit="10" stroke-linecap="round" stroke-linejoin="round"/>
<path d="M257.581 160.948L247.354 167.251" stroke="#B2B2B2" stroke-width="0.3" stroke-miterlimit="10" stroke-linecap="round" stroke-linejoin="round"/>
<g opacity="0.3">
<path d="M22.0879 107.806L19.3633 109.485" stroke="#B2B2B2" stroke-width="0.3" stroke-miterlimit="10" stroke-linecap="round" stroke-linejoin="round"/>
<path d="M68.0155 79.5017L25.7491 105.55" stroke="#B2B2B2" stroke-width="0.3" stroke-miterlimit="10" stroke-linecap="round" stroke-linejoin="round"/>
<path d="M73.5925 81.262L39.7291 102.131" stroke="#B2B2B2" stroke-width="0.3" stroke-miterlimit="10" stroke-linecap="round" stroke-linejoin="round"/>
<path d="M88.3812 72.1472L78.1542 78.4502" stroke="#B2B2B2" stroke-width="0.3" stroke-miterlimit="10" stroke-linecap="round" stroke-linejoin="round"/>
</g>
<path d="M274.621 270.102H280.267" stroke="#263238" stroke-width="0.6" stroke-miterlimit="10" stroke-linecap="round" stroke-linejoin="round"/>
<path d="M119.842 270.102H268.035" stroke="#263238" stroke-width="0.6" stroke-miterlimit="10" stroke-linecap="round" stroke-linejoin="round"/>
<path d="M14.9304 270.103H116.078" stroke="#263238" stroke-width="0.6" stroke-miterlimit="10" stroke-linecap="round" stroke-linejoin="round"/>
<path d="M245.692 171.74L253.623 247.742" stroke="#263238" stroke-width="1.2" stroke-miterlimit="10" stroke-linecap="round" stroke-linejoin="round"/>
<path d="M252.345 233.198L248.749 229.4" stroke="#263238" stroke-width="1.2" stroke-miterlimit="10" stroke-linecap="round" stroke-linejoin="round"/>
<path d="M249.842 230.538C249.842 230.538 249.944 228.858 248.411 227.488C247.488 226.663 242.63 224.62 242.169 226.331C241.668 228.191 246.639 231.845 249.842 230.538Z" fill="#5472DC" stroke="#263238" stroke-width="0.6" stroke-miterlimit="10" stroke-linecap="round" stroke-linejoin="round"/>
<path d="M249.842 230.538L245.217 227.656" stroke="#263238" stroke-width="0.3" stroke-miterlimit="10" stroke-linecap="round" stroke-linejoin="round"/>
<path d="M253.247 241.841L249.651 238.043" stroke="#263238" stroke-width="1.2" stroke-miterlimit="10" stroke-linecap="round" stroke-linejoin="round"/>
<path d="M250.744 239.181C250.744 239.181 250.847 237.501 249.313 236.131C248.39 235.307 243.532 233.263 243.071 234.975C242.57 236.835 247.541 240.489 250.744 239.181Z" fill="#5472DC" stroke="#263238" stroke-width="0.6" stroke-miterlimit="10" stroke-linecap="round" stroke-linejoin="round"/>
<path d="M250.744 239.181L246.119 236.299" stroke="#263238" stroke-width="0.3" stroke-miterlimit="10" stroke-linecap="round" stroke-linejoin="round"/>
<path d="M250.144 212.106L246.548 208.308" stroke="#263238" stroke-width="1.2" stroke-miterlimit="10" stroke-linecap="round" stroke-linejoin="round"/>
<path d="M247.64 209.446C247.64 209.446 247.743 207.766 246.209 206.396C245.287 205.572 240.429 203.528 239.968 205.239C239.467 207.099 244.438 210.753 247.64 209.446Z" fill="#5472DC" stroke="#263238" stroke-width="0.6" stroke-miterlimit="10" stroke-linecap="round" stroke-linejoin="round"/>
<path d="M247.64 209.446L243.016 206.564" stroke="#263238" stroke-width="0.3" stroke-miterlimit="10" stroke-linecap="round" stroke-linejoin="round"/>
<path d="M251.046 220.749L247.45 216.951" stroke="#263238" stroke-width="1.2" stroke-miterlimit="10" stroke-linecap="round" stroke-linejoin="round"/>
<path d="M248.542 218.089C248.542 218.089 248.645 216.409 247.111 215.039C246.188 214.215 241.331 212.171 240.87 213.882C240.369 215.743 245.341 219.397 248.542 218.089Z" fill="#5472DC" stroke="#263238" stroke-width="0.6" stroke-miterlimit="10" stroke-linecap="round" stroke-linejoin="round"/>
<path d="M248.542 218.089L243.918 215.208" stroke="#263238" stroke-width="0.3" stroke-miterlimit="10" stroke-linecap="round" stroke-linejoin="round"/>
<path d="M248.678 198.064L245.083 194.267" stroke="#263238" stroke-width="1.2" stroke-miterlimit="10" stroke-linecap="round" stroke-linejoin="round"/>
<path d="M246.175 195.405C246.175 195.405 246.278 193.725 244.744 192.355C243.821 191.531 238.964 189.487 238.503 191.198C238.001 193.059 242.973 196.713 246.175 195.405Z" fill="#5472DC" stroke="#263238" stroke-width="0.6" stroke-miterlimit="10" stroke-linecap="round" stroke-linejoin="round"/>
<path d="M246.175 195.404L241.551 192.523" stroke="#263238" stroke-width="0.3" stroke-miterlimit="10" stroke-linecap="round" stroke-linejoin="round"/>
<path d="M247.207 183.963L243.611 180.165" stroke="#263238" stroke-width="1.2" stroke-miterlimit="10" stroke-linecap="round" stroke-linejoin="round"/>
<path d="M244.704 181.303C244.704 181.303 244.806 179.623 243.273 178.253C242.35 177.428 237.492 175.385 237.031 177.096C236.53 178.956 241.502 182.61 244.704 181.303Z" fill="#5472DC" stroke="#263238" stroke-width="0.6" stroke-miterlimit="10" stroke-linecap="round" stroke-linejoin="round"/>
<path d="M244.703 181.303L240.079 178.421" stroke="#263238" stroke-width="0.3" stroke-miterlimit="10" stroke-linecap="round" stroke-linejoin="round"/>
<path d="M251.741 228.083L254.474 223.625" stroke="#263238" stroke-width="1.2" stroke-miterlimit="10" stroke-linecap="round" stroke-linejoin="round"/>
<path d="M253.64 224.964C253.64 224.964 253.193 223.341 254.411 221.684C255.143 220.687 259.474 217.685 260.279 219.263C261.153 220.98 257.043 225.582 253.64 224.964Z" fill="#5472DC" stroke="#263238" stroke-width="0.6" stroke-miterlimit="10" stroke-linecap="round" stroke-linejoin="round"/>
<path d="M253.64 224.964L257.804 220.984" stroke="#263238" stroke-width="0.3" stroke-miterlimit="10" stroke-linecap="round" stroke-linejoin="round"/>
<path d="M249.367 205.338L252.101 200.879" stroke="#263238" stroke-width="1.2" stroke-miterlimit="10" stroke-linecap="round" stroke-linejoin="round"/>
<path d="M251.267 202.218C251.267 202.218 250.819 200.596 252.037 198.938C252.77 197.941 257.101 194.939 257.905 196.518C258.78 198.235 254.67 202.837 251.267 202.218Z" fill="#5472DC" stroke="#263238" stroke-width="0.6" stroke-miterlimit="10" stroke-linecap="round" stroke-linejoin="round"/>
<path d="M251.267 202.218L255.431 198.238" stroke="#263238" stroke-width="0.3" stroke-miterlimit="10" stroke-linecap="round" stroke-linejoin="round"/>
<path d="M248.324 195.342L251.057 190.884" stroke="#263238" stroke-width="1.2" stroke-miterlimit="10" stroke-linecap="round" stroke-linejoin="round"/>
<path d="M250.224 192.222C250.224 192.222 249.776 190.6 250.994 188.943C251.727 187.945 256.057 184.943 256.862 186.522C257.737 188.239 253.627 192.841 250.224 192.222Z" fill="#5472DC" stroke="#263238" stroke-width="0.6" stroke-miterlimit="10" stroke-linecap="round" stroke-linejoin="round"/>
<path d="M250.223 192.222L254.387 188.243" stroke="#263238" stroke-width="0.3" stroke-miterlimit="10" stroke-linecap="round" stroke-linejoin="round"/>
<path d="M246.794 180.688L249.529 176.229" stroke="#263238" stroke-width="1.2" stroke-miterlimit="10" stroke-linecap="round" stroke-linejoin="round"/>
<path d="M248.695 177.568C248.695 177.568 248.247 175.946 249.465 174.289C250.198 173.292 254.528 170.289 255.333 171.868C256.208 173.585 252.097 178.187 248.695 177.568Z" fill="#5472DC" stroke="#263238" stroke-width="0.6" stroke-miterlimit="10" stroke-linecap="round" stroke-linejoin="round"/>
<path d="M248.695 177.568L252.858 173.589" stroke="#263238" stroke-width="0.3" stroke-miterlimit="10" stroke-linecap="round" stroke-linejoin="round"/>
<path d="M245.625 171.319C245.625 171.319 245.177 169.696 246.395 168.039C247.128 167.042 251.459 164.04 252.263 165.618C253.138 167.335 249.027 171.937 245.625 171.319Z" fill="#5472DC" stroke="#263238" stroke-width="0.6" stroke-miterlimit="10" stroke-linecap="round" stroke-linejoin="round"/>
<path d="M245.625 171.319L249.789 167.339" stroke="#263238" stroke-width="0.3" stroke-miterlimit="10" stroke-linecap="round" stroke-linejoin="round"/>
<path d="M245.866 171.491C245.866 171.491 244.205 171.765 242.685 170.381C241.77 169.547 239.238 164.925 240.893 164.291C242.693 163.601 246.838 168.171 245.866 171.491Z" fill="#5472DC" stroke="#263238" stroke-width="0.6" stroke-miterlimit="10" stroke-linecap="round" stroke-linejoin="round"/>
<path d="M245.866 171.49L242.345 166.932" stroke="#263238" stroke-width="0.3" stroke-miterlimit="10" stroke-linecap="round" stroke-linejoin="round"/>
<path d="M266.612 182.207L258.725 258.213" stroke="#263238" stroke-width="1.2" stroke-miterlimit="10" stroke-linecap="round" stroke-linejoin="round"/>
<path d="M260.468 243.717L257.732 239.26" stroke="#263238" stroke-width="1.2" stroke-miterlimit="10" stroke-linecap="round" stroke-linejoin="round"/>
<path d="M258.566 240.598C258.566 240.598 259.013 238.975 257.794 237.319C257.061 236.322 252.728 233.322 251.925 234.901C251.051 236.62 255.164 241.219 258.566 240.598Z" fill="#5472DC" stroke="#263238" stroke-width="0.6" stroke-miterlimit="10" stroke-linecap="round" stroke-linejoin="round"/>
<path d="M258.566 240.599L254.635 236.827" stroke="#263238" stroke-width="0.3" stroke-miterlimit="10" stroke-linecap="round" stroke-linejoin="round"/>
<path d="M262.657 222.625L259.92 218.168" stroke="#263238" stroke-width="1.2" stroke-miterlimit="10" stroke-linecap="round" stroke-linejoin="round"/>
<path d="M260.755 219.505C260.755 219.505 261.202 217.882 259.982 216.226C259.249 215.229 254.917 212.229 254.113 213.808C253.24 215.527 257.353 220.126 260.755 219.505Z" fill="#5472DC" stroke="#263238" stroke-width="0.6" stroke-miterlimit="10" stroke-linecap="round" stroke-linejoin="round"/>
<path d="M260.755 219.506L256.823 215.733" stroke="#263238" stroke-width="0.3" stroke-miterlimit="10" stroke-linecap="round" stroke-linejoin="round"/>
<path d="M261.76 231.268L259.024 226.811" stroke="#263238" stroke-width="1.2" stroke-miterlimit="10" stroke-linecap="round" stroke-linejoin="round"/>
<path d="M259.858 228.15C259.858 228.15 260.305 226.527 259.085 224.87C258.352 223.874 254.02 220.874 253.216 222.453C252.343 224.171 256.456 228.77 259.858 228.15Z" fill="#5472DC" stroke="#263238" stroke-width="0.6" stroke-miterlimit="10" stroke-linecap="round" stroke-linejoin="round"/>
<path d="M259.858 228.15L255.926 224.378" stroke="#263238" stroke-width="0.3" stroke-miterlimit="10" stroke-linecap="round" stroke-linejoin="round"/>
<path d="M264.114 208.583L261.377 204.126" stroke="#263238" stroke-width="1.2" stroke-miterlimit="10" stroke-linecap="round" stroke-linejoin="round"/>
<path d="M262.212 205.464C262.212 205.464 262.659 203.841 261.44 202.185C260.707 201.188 256.374 198.188 255.571 199.767C254.697 201.485 258.81 206.085 262.212 205.464Z" fill="#5472DC" stroke="#263238" stroke-width="0.6" stroke-miterlimit="10" stroke-linecap="round" stroke-linejoin="round"/>
<path d="M262.212 205.464L258.28 201.692" stroke="#263238" stroke-width="0.3" stroke-miterlimit="10" stroke-linecap="round" stroke-linejoin="round"/>
<path d="M265.577 194.48L262.841 190.023" stroke="#263238" stroke-width="1.2" stroke-miterlimit="10" stroke-linecap="round" stroke-linejoin="round"/>
<path d="M263.676 191.362C263.676 191.362 264.122 189.739 262.903 188.082C262.17 187.085 257.837 184.085 257.034 185.665C256.16 187.382 260.273 191.982 263.676 191.362Z" fill="#5472DC" stroke="#263238" stroke-width="0.6" stroke-miterlimit="10" stroke-linecap="round" stroke-linejoin="round"/>
<path d="M263.676 191.361L259.744 187.589" stroke="#263238" stroke-width="0.3" stroke-miterlimit="10" stroke-linecap="round" stroke-linejoin="round"/>
<path d="M260.93 238.588L264.523 234.788" stroke="#263238" stroke-width="1.2" stroke-miterlimit="10" stroke-linecap="round" stroke-linejoin="round"/>
<path d="M263.432 235.927C263.432 235.927 263.328 234.247 264.861 232.876C265.784 232.051 270.64 230.005 271.102 231.716C271.604 233.576 266.635 237.233 263.432 235.927Z" fill="#5472DC" stroke="#263238" stroke-width="0.6" stroke-miterlimit="10" stroke-linecap="round" stroke-linejoin="round"/>
<path d="M263.432 235.927L268.326 232.889" stroke="#263238" stroke-width="0.3" stroke-miterlimit="10" stroke-linecap="round" stroke-linejoin="round"/>
<path d="M263.29 215.841L266.884 212.041" stroke="#263238" stroke-width="1.2" stroke-miterlimit="10" stroke-linecap="round" stroke-linejoin="round"/>
<path d="M265.792 213.18C265.792 213.18 265.688 211.5 267.221 210.129C268.144 209.304 273 207.258 273.462 208.969C273.964 210.829 268.995 214.486 265.792 213.18Z" fill="#5472DC" stroke="#263238" stroke-width="0.6" stroke-miterlimit="10" stroke-linecap="round" stroke-linejoin="round"/>
<path d="M265.792 213.18L270.686 210.143" stroke="#263238" stroke-width="0.3" stroke-miterlimit="10" stroke-linecap="round" stroke-linejoin="round"/>
<path d="M264.328 205.844L267.921 202.045" stroke="#263238" stroke-width="1.2" stroke-miterlimit="10" stroke-linecap="round" stroke-linejoin="round"/>
<path d="M266.83 203.183C266.83 203.183 266.726 201.503 268.259 200.132C269.181 199.307 274.038 197.261 274.5 198.971C275.002 200.833 270.032 204.49 266.83 203.183Z" fill="#5472DC" stroke="#263238" stroke-width="0.6" stroke-miterlimit="10" stroke-linecap="round" stroke-linejoin="round"/>
<path d="M266.83 203.183L271.723 200.146" stroke="#263238" stroke-width="0.3" stroke-miterlimit="10" stroke-linecap="round" stroke-linejoin="round"/>
<path d="M265.849 191.19L269.442 187.39" stroke="#263238" stroke-width="1.2" stroke-miterlimit="10" stroke-linecap="round" stroke-linejoin="round"/>
<path d="M268.35 188.529C268.35 188.529 268.246 186.849 269.779 185.478C270.701 184.653 275.558 182.607 276.02 184.317C276.523 186.177 271.553 189.834 268.35 188.529Z" fill="#5472DC" stroke="#263238" stroke-width="0.6" stroke-miterlimit="10" stroke-linecap="round" stroke-linejoin="round"/>
<path d="M268.35 188.529L273.244 185.492" stroke="#263238" stroke-width="0.3" stroke-miterlimit="10" stroke-linecap="round" stroke-linejoin="round"/>
<path d="M266.633 181.781C266.633 181.781 266.529 180.101 268.062 178.73C268.984 177.905 273.84 175.859 274.302 177.569C274.805 179.43 269.835 183.087 266.633 181.781Z" fill="#5472DC" stroke="#263238" stroke-width="0.6" stroke-miterlimit="10" stroke-linecap="round" stroke-linejoin="round"/>
<path d="M266.633 181.781L271.528 178.743" stroke="#263238" stroke-width="0.3" stroke-miterlimit="10" stroke-linecap="round" stroke-linejoin="round"/>
<path d="M266.834 181.998C266.834 181.998 265.152 181.925 263.95 180.257C263.226 179.253 261.7 174.209 263.45 173.929C265.352 173.624 268.469 178.95 266.834 181.998Z" fill="#5472DC" stroke="#263238" stroke-width="0.6" stroke-miterlimit="10" stroke-linecap="round" stroke-linejoin="round"/>
<path d="M266.834 181.998L264.326 176.812" stroke="#263238" stroke-width="0.3" stroke-miterlimit="10" stroke-linecap="round" stroke-linejoin="round"/>
<path d="M257.573 151.258V247.372" stroke="#263238" stroke-width="1.2" stroke-miterlimit="10" stroke-linecap="round" stroke-linejoin="round"/>
<path d="M257.65 232.92L254.468 228.77" stroke="#263238" stroke-width="1.2" stroke-miterlimit="10" stroke-linecap="round" stroke-linejoin="round"/>
<path d="M255.436 230.015C255.436 230.015 255.713 228.355 254.329 226.834C253.497 225.918 248.878 223.381 248.242 225.035C247.55 226.833 252.116 230.984 255.436 230.015Z" fill="#5472DC" stroke="#263238" stroke-width="0.6" stroke-miterlimit="10" stroke-linecap="round" stroke-linejoin="round"/>
<path d="M255.436 230.015L251.136 226.669" stroke="#263238" stroke-width="0.3" stroke-miterlimit="10" stroke-linecap="round" stroke-linejoin="round"/>
<path d="M257.65 214.858L254.468 210.707" stroke="#263238" stroke-width="1.2" stroke-miterlimit="10" stroke-linecap="round" stroke-linejoin="round"/>
<path d="M255.436 211.952C255.436 211.952 255.713 210.292 254.329 208.771C253.497 207.855 248.878 205.318 248.242 206.972C247.55 208.77 252.116 212.921 255.436 211.952Z" fill="#5472DC" stroke="#263238" stroke-width="0.6" stroke-miterlimit="10" stroke-linecap="round" stroke-linejoin="round"/>
<path d="M255.436 211.953L251.136 208.607" stroke="#263238" stroke-width="0.3" stroke-miterlimit="10" stroke-linecap="round" stroke-linejoin="round"/>
<path d="M257.65 193.651L254.468 189.501" stroke="#263238" stroke-width="1.2" stroke-miterlimit="10" stroke-linecap="round" stroke-linejoin="round"/>
<path d="M255.436 190.746C255.436 190.746 255.713 189.086 254.329 187.565C253.497 186.649 248.878 184.112 248.242 185.766C247.55 187.564 252.116 191.715 255.436 190.746Z" fill="#5472DC" stroke="#263238" stroke-width="0.6" stroke-miterlimit="10" stroke-linecap="round" stroke-linejoin="round"/>
<path d="M255.436 190.746L251.136 187.4" stroke="#263238" stroke-width="0.3" stroke-miterlimit="10" stroke-linecap="round" stroke-linejoin="round"/>
<path d="M257.65 179.535L254.468 175.384" stroke="#263238" stroke-width="1.2" stroke-miterlimit="10" stroke-linecap="round" stroke-linejoin="round"/>
<path d="M255.436 176.629C255.436 176.629 255.713 174.969 254.329 173.447C253.497 172.531 248.878 169.995 248.242 171.648C247.55 173.447 252.116 177.598 255.436 176.629Z" fill="#5472DC" stroke="#263238" stroke-width="0.6" stroke-miterlimit="10" stroke-linecap="round" stroke-linejoin="round"/>
<path d="M255.436 176.629L251.136 173.283" stroke="#263238" stroke-width="0.3" stroke-miterlimit="10" stroke-linecap="round" stroke-linejoin="round"/>
<path d="M257.65 165.356L254.468 161.206" stroke="#263238" stroke-width="1.2" stroke-miterlimit="10" stroke-linecap="round" stroke-linejoin="round"/>
<path d="M255.436 162.451C255.436 162.451 255.713 160.79 254.329 159.269C253.497 158.353 248.878 155.816 248.242 157.47C247.55 159.269 252.116 163.419 255.436 162.451Z" fill="#5472DC" stroke="#263238" stroke-width="0.6" stroke-miterlimit="10" stroke-linecap="round" stroke-linejoin="round"/>
<path d="M255.436 162.45L251.136 159.104" stroke="#263238" stroke-width="0.3" stroke-miterlimit="10" stroke-linecap="round" stroke-linejoin="round"/>
<path d="M257.58 238.436L260.762 234.285" stroke="#263238" stroke-width="1.2" stroke-miterlimit="10" stroke-linecap="round" stroke-linejoin="round"/>
<path d="M259.793 235.53C259.793 235.53 259.517 233.87 260.9 232.348C261.733 231.433 266.352 228.896 266.988 230.55C267.679 232.348 263.114 236.499 259.793 235.53Z" fill="#5472DC" stroke="#263238" stroke-width="0.6" stroke-miterlimit="10" stroke-linecap="round" stroke-linejoin="round"/>
<path d="M259.793 235.53L264.348 232.004" stroke="#263238" stroke-width="0.3" stroke-miterlimit="10" stroke-linecap="round" stroke-linejoin="round"/>
<path d="M257.58 209.709L260.762 205.558" stroke="#263238" stroke-width="1.2" stroke-miterlimit="10" stroke-linecap="round" stroke-linejoin="round"/>
<path d="M259.793 206.804C259.793 206.804 259.517 205.144 260.9 203.622C261.733 202.706 266.352 200.169 266.988 201.823C267.679 203.621 263.114 207.772 259.793 206.804Z" fill="#5472DC" stroke="#263238" stroke-width="0.6" stroke-miterlimit="10" stroke-linecap="round" stroke-linejoin="round"/>
<path d="M259.793 206.804L264.348 203.277" stroke="#263238" stroke-width="0.3" stroke-miterlimit="10" stroke-linecap="round" stroke-linejoin="round"/>
<path d="M257.58 195.53L260.762 191.379" stroke="#263238" stroke-width="1.2" stroke-miterlimit="10" stroke-linecap="round" stroke-linejoin="round"/>
<path d="M259.793 192.625C259.793 192.625 259.517 190.965 260.9 189.443C261.733 188.528 266.352 185.991 266.988 187.644C267.679 189.443 263.114 193.593 259.793 192.625Z" fill="#5472DC" stroke="#263238" stroke-width="0.6" stroke-miterlimit="10" stroke-linecap="round" stroke-linejoin="round"/>
<path d="M259.793 192.625L264.348 189.099" stroke="#263238" stroke-width="0.3" stroke-miterlimit="10" stroke-linecap="round" stroke-linejoin="round"/>
<path d="M257.58 176.789L260.762 172.639" stroke="#263238" stroke-width="1.2" stroke-miterlimit="10" stroke-linecap="round" stroke-linejoin="round"/>
<path d="M259.793 173.884C259.793 173.884 259.517 172.224 260.9 170.702C261.733 169.786 266.352 167.25 266.988 168.903C267.679 170.702 263.114 174.852 259.793 173.884Z" fill="#5472DC" stroke="#263238" stroke-width="0.6" stroke-miterlimit="10" stroke-linecap="round" stroke-linejoin="round"/>
<path d="M259.793 173.884L264.348 170.358" stroke="#263238" stroke-width="0.3" stroke-miterlimit="10" stroke-linecap="round" stroke-linejoin="round"/>
<path d="M257.58 162.056L260.762 157.905" stroke="#263238" stroke-width="1.2" stroke-miterlimit="10" stroke-linecap="round" stroke-linejoin="round"/>
<path d="M259.793 159.151C259.793 159.151 259.517 157.491 260.9 155.969C261.733 155.053 266.352 152.517 266.988 154.17C267.679 155.968 263.114 160.119 259.793 159.151Z" fill="#5472DC" stroke="#263238" stroke-width="0.6" stroke-miterlimit="10" stroke-linecap="round" stroke-linejoin="round"/>
<path d="M259.793 159.151L264.348 155.625" stroke="#263238" stroke-width="0.3" stroke-miterlimit="10" stroke-linecap="round" stroke-linejoin="round"/>
<path d="M257.389 152.616C257.389 152.616 257.112 150.956 258.496 149.434C259.328 148.519 263.948 145.982 264.584 147.636C265.275 149.434 260.709 153.584 257.389 152.616Z" fill="#5472DC" stroke="#263238" stroke-width="0.6" stroke-miterlimit="10" stroke-linecap="round" stroke-linejoin="round"/>
<path d="M257.389 152.617L261.944 149.09" stroke="#263238" stroke-width="0.3" stroke-miterlimit="10" stroke-linecap="round" stroke-linejoin="round"/>
<path d="M257.611 152.812C257.611 152.812 255.931 152.913 254.563 151.377C253.739 150.453 251.701 145.594 253.412 145.135C255.274 144.636 258.923 149.611 257.611 152.812Z" fill="#5472DC" stroke="#263238" stroke-width="0.6" stroke-miterlimit="10" stroke-linecap="round" stroke-linejoin="round"/>
<path d="M257.611 152.812L254.582 147.913" stroke="#263238" stroke-width="0.3" stroke-miterlimit="10" stroke-linecap="round" stroke-linejoin="round"/>
<path d="M261.527 272.3H251.348L250.076 246.593H262.8L261.527 272.3Z" fill="#263238" stroke="#263238" stroke-width="0.6" stroke-miterlimit="10" stroke-linecap="round" stroke-linejoin="round"/>
<path d="M282.143 23.0271H118.499V120.779H282.143V23.0271Z" fill="#263238"/>
<path opacity="0.1" d="M282.143 23.0271H118.499V120.779H282.143V23.0271Z" fill="white"/>
<path d="M282.143 23.0271H118.499V46.2405H282.143V23.0271Z" fill="#263238"/>
<path d="M162.532 68.063V61.5974H163.253V67.4072H165.1V68.063H162.532Z" fill="white"/>
<path d="M165.589 63.1581C165.589 62.1693 166.079 61.5327 167.067 61.5327C168.065 61.5327 168.554 62.1699 168.554 63.1581V66.5019C168.554 67.4811 168.065 68.1273 167.067 68.1273C166.079 68.1273 165.589 67.4805 165.589 66.5019V63.1581ZM166.301 66.5385C166.301 67.1295 166.55 67.4715 167.067 67.4715C167.594 67.4715 167.834 67.1295 167.834 66.5385V63.1209C167.834 62.5389 167.594 62.1885 167.067 62.1885C166.55 62.1885 166.301 62.5389 166.301 63.1209V66.5385Z" fill="white"/>
<path d="M169.876 68.063H169.229V61.5974H170.144L171.641 66.2714V61.5974H172.278V68.063H171.53L169.877 62.8346L169.876 68.063Z" fill="white"/>
<path d="M174.532 61.5973C175.539 61.5973 176.001 62.2069 176.001 63.2041V66.4645C176.001 67.4533 175.539 68.0623 174.532 68.0623H173.017V61.5967L174.532 61.5973ZM174.523 67.4065C175.04 67.4065 175.289 67.0831 175.289 66.4921V63.1669C175.289 62.5759 175.04 62.2525 174.514 62.2525H173.737V67.4065H174.523Z" fill="white"/>
<path d="M176.62 63.1581C176.62 62.1693 177.109 61.5327 178.097 61.5327C179.095 61.5327 179.585 62.1699 179.585 63.1581V66.5019C179.585 67.4811 179.095 68.1273 178.097 68.1273C177.109 68.1273 176.62 67.4805 176.62 66.5019V63.1581ZM177.331 66.5385C177.331 67.1295 177.581 67.4715 178.097 67.4715C178.624 67.4715 178.864 67.1295 178.864 66.5385V63.1209C178.864 62.5389 178.624 62.1885 178.097 62.1885C177.58 62.1885 177.331 62.5389 177.331 63.1209V66.5385Z" fill="white"/>
<path d="M180.907 68.063H180.26V61.5974H181.175L182.671 66.2714V61.5974H183.308V68.063H182.56L180.907 62.8346V68.063H180.907Z" fill="white"/>
<path d="M245.295 63.158V63.7394H244.611V63.1208C244.611 62.5388 244.381 62.1884 243.854 62.1884C243.337 62.1884 243.097 62.5388 243.097 63.1208V66.5384C243.097 67.1204 243.337 67.4714 243.854 67.4714C244.381 67.4714 244.611 67.1204 244.611 66.5384V65.6978H245.295V66.5012C245.295 67.4804 244.833 68.1266 243.836 68.1266C242.848 68.1266 242.386 67.4798 242.386 66.5012V63.1574C242.386 62.1782 242.848 61.532 243.836 61.532C244.834 61.5326 245.295 62.1788 245.295 63.158Z" fill="#5472DC"/>
<path d="M246.681 66.7604L246.432 68.063H245.766L247.005 61.5974H248.049L249.286 68.063H248.566L248.316 66.7604H246.681ZM246.773 66.1412H248.214L247.485 62.4092L246.773 66.1412Z" fill="#5472DC"/>
<path d="M250.487 68.063H249.84V61.5974H250.755L252.251 66.2714V61.5974H252.889V68.063H252.14L250.487 62.8346V68.063H250.487Z" fill="#5472DC"/>
<path d="M256.482 63.158V63.7394H255.798V63.1208C255.798 62.5388 255.568 62.1884 255.041 62.1884C254.524 62.1884 254.284 62.5388 254.284 63.1208V66.5384C254.284 67.1204 254.524 67.4714 255.041 67.4714C255.568 67.4714 255.798 67.1204 255.798 66.5384V65.6978H256.482V66.5012C256.482 67.4804 256.02 68.1266 255.023 68.1266C254.034 68.1266 253.573 67.4798 253.573 66.5012V63.1574C253.573 62.1782 254.035 61.532 255.023 61.532C256.02 61.5326 256.482 62.1788 256.482 63.158Z" fill="#5472DC"/>
<path d="M259.438 64.4606V65.1074H257.858V67.4072H259.799V68.063H257.138V61.5974H259.799V62.2532H257.858V64.4606H259.438Z" fill="#5472DC"/>
<path d="M260.464 68.063V61.5974H261.184V67.4072H263.032V68.063H260.464Z" fill="#5472DC"/>
<path d="M263.576 68.063V61.5974H264.297V67.4072H266.144V68.063H263.576Z" fill="#5472DC"/>
<path d="M268.99 64.4606V65.1074H267.41V67.4072H269.351V68.063H266.69V61.5974H269.351V62.2532H267.41V64.4606H268.99Z" fill="#5472DC"/>
<path d="M271.53 61.5973C272.537 61.5973 272.999 62.2069 272.999 63.2041V66.4645C272.999 67.4533 272.537 68.0623 271.53 68.0623H270.015V61.5967L271.53 61.5973ZM271.522 67.4065C272.039 67.4065 272.288 67.0831 272.288 66.4921V63.1669C272.288 62.5759 272.038 62.2525 271.512 62.2525H270.736V67.4065H271.522Z" fill="#5472DC"/>
<path d="M163.17 79.1917H162.523V72.7261H163.438L164.935 77.4001V72.7261H165.572V79.1917H164.824L163.171 73.9639L163.17 79.1917Z" fill="white"/>
<path d="M168.61 75.5893V76.2361H167.03V78.5359H168.971V79.1917H166.31V72.7261H168.971V73.3819H167.03V75.5893H168.61Z" fill="white"/>
<path d="M171.354 79.192H170.365L169.479 72.7264H170.181L170.938 78.2314L171.658 72.7354H172.37L173.082 78.2404L173.811 72.7258H174.439L173.562 79.1914H172.611L171.991 74.8042L171.354 79.192Z" fill="white"/>
<path d="M177.598 76.8736L176.231 72.7258H176.98L177.986 75.9034L179.003 72.7258H179.686L178.31 76.8736V79.192H177.598V76.8736Z" fill="white"/>
<path d="M180.01 74.2875C180.01 73.2987 180.499 72.6621 181.487 72.6621C182.485 72.6621 182.974 73.2993 182.974 74.2875V77.6313C182.974 78.6105 182.485 79.2567 181.487 79.2567C180.499 79.2567 180.01 78.6099 180.01 77.6313V74.2875ZM180.721 77.6679C180.721 78.2589 180.971 78.6009 181.487 78.6009C182.014 78.6009 182.254 78.2589 182.254 77.6679V74.2503C182.254 73.6683 182.014 73.3173 181.487 73.3173C180.97 73.3173 180.721 73.6683 180.721 74.2503V77.6679Z" fill="white"/>
<path d="M185.099 72.7258C186.116 72.7258 186.541 73.2436 186.541 74.2036V74.7304C186.541 75.4414 186.291 75.8848 185.737 76.0606C186.328 76.2358 186.55 76.7158 186.55 77.4088V78.4156C186.55 78.7018 186.559 78.9694 186.679 79.1914H185.95C185.866 79.0066 185.83 78.8404 185.83 78.406V77.3902C185.83 76.6606 185.488 76.4296 184.888 76.4296H184.379V79.1914H183.659V72.7258H185.099ZM184.915 75.7744C185.488 75.7744 185.83 75.5896 185.83 74.8876V74.2684C185.83 73.687 185.617 73.3816 185.081 73.3816H184.379V75.7744H184.915Z" fill="white"/>
<path d="M188.398 76.384L188.018 77.0212V79.1914H187.298V72.7258H188.018V75.8482L189.737 72.7258H190.466L188.831 75.6724L190.522 79.1914H189.782L188.398 76.384Z" fill="white"/>
<path d="M245.295 74.2874V74.8694H244.611V74.2502C244.611 73.6682 244.381 73.3172 243.854 73.3172C243.337 73.3172 243.097 73.6682 243.097 74.2502V77.6678C243.097 78.2498 243.337 78.6008 243.854 78.6008C244.381 78.6008 244.611 78.2498 244.611 77.6678V76.8272H245.295V77.6306C245.295 78.6098 244.833 79.256 243.836 79.256C242.848 79.256 242.386 78.6092 242.386 77.6306V74.2868C242.386 73.3076 242.848 72.6614 243.836 72.6614C244.834 72.6614 245.295 73.3076 245.295 74.2874Z" fill="#5472DC"/>
<path d="M246.681 77.8891L246.432 79.1917H245.766L247.005 72.7261H248.049L249.286 79.1917H248.566L248.316 77.8891H246.681ZM246.773 77.2705H248.214L247.485 73.5391L246.773 77.2705Z" fill="#5472DC"/>
<path d="M250.487 79.1917H249.84V72.7261H250.755L252.251 77.4001V72.7261H252.889V79.1917H252.14L250.487 73.9639V79.1917H250.487Z" fill="#5472DC"/>
<path d="M256.482 74.2874V74.8694H255.798V74.2502C255.798 73.6682 255.568 73.3172 255.041 73.3172C254.524 73.3172 254.284 73.6682 254.284 74.2502V77.6678C254.284 78.2498 254.524 78.6008 255.041 78.6008C255.568 78.6008 255.798 78.2498 255.798 77.6678V76.8272H256.482V77.6306C256.482 78.6098 256.02 79.256 255.023 79.256C254.034 79.256 253.573 78.6092 253.573 77.6306V74.2868C253.573 73.3076 254.035 72.6614 255.023 72.6614C256.02 72.6614 256.482 73.3076 256.482 74.2874Z" fill="#5472DC"/>
<path d="M259.438 75.5893V76.2361H257.858V78.5359H259.799V79.1917H257.138V72.7261H259.799V73.3819H257.858V75.5893H259.438Z" fill="#5472DC"/>
<path d="M260.464 79.1917V72.7261H261.184V78.5359H263.032V79.1917H260.464Z" fill="#5472DC"/>
<path d="M263.576 79.1917V72.7261H264.297V78.5359H266.144V79.1917H263.576Z" fill="#5472DC"/>
<path d="M268.99 75.5893V76.2361H267.41V78.5359H269.351V79.1917H266.69V72.7261H269.351V73.3819H267.41V75.5893H268.99Z" fill="#5472DC"/>
<path d="M271.53 72.7258C272.537 72.7258 272.999 73.3354 272.999 74.3332V77.5936C272.999 78.5824 272.537 79.1914 271.53 79.1914H270.015V72.7258H271.53ZM271.522 78.5362C272.039 78.5362 272.288 78.2128 272.288 77.6218V74.2966C272.288 73.7056 272.038 73.3822 271.512 73.3822H270.736V78.5362H271.522Z" fill="#5472DC"/>
<path d="M163.945 83.8542C164.962 83.8542 165.396 84.4549 165.396 85.4341V86.2099C165.396 87.2353 164.916 87.771 163.89 87.771H163.252V90.3205H162.532V83.8542H163.945ZM163.89 87.1242C164.425 87.1242 164.685 86.8747 164.685 86.2561V85.3968C164.685 84.8058 164.472 84.51 163.945 84.51H163.252V87.1242H163.89Z" fill="white"/>
<path d="M166.597 89.0178L166.348 90.3205H165.682L166.921 83.8542H167.965L169.202 90.3205H168.482L168.232 89.0178H166.597ZM166.689 88.3992H168.13L167.401 84.6678L166.689 88.3992Z" fill="white"/>
<path d="M171.206 83.8544C172.222 83.8544 172.648 84.3722 172.648 85.3322V85.859C172.648 86.57 172.398 87.0134 171.844 87.1892C172.435 87.3644 172.657 87.8444 172.657 88.5374V89.5442C172.657 89.8304 172.666 90.098 172.786 90.32H172.057C171.973 90.1352 171.937 89.969 171.937 89.5346V88.5188C171.937 87.7892 171.595 87.5582 170.995 87.5582H170.486V90.32H169.766V83.8538L171.206 83.8544ZM171.022 86.903C171.595 86.903 171.936 86.7182 171.936 86.0162V85.397C171.936 84.8156 171.724 84.5102 171.188 84.5102H170.486V86.903H171.022Z" fill="white"/>
<path d="M174.126 83.8542V90.3205H173.406V83.8542H174.126Z" fill="white"/>
<path d="M177.664 85.4066V85.5818H176.981V85.3694C176.981 84.7874 176.759 84.4454 176.242 84.4454C175.724 84.4454 175.502 84.7874 175.502 85.3598C175.502 86.81 177.673 86.9486 177.673 88.7678C177.673 89.747 177.202 90.3842 176.214 90.3842C175.226 90.3842 174.764 89.7464 174.764 88.7678V88.3982H175.438V88.805C175.438 89.3864 175.678 89.7284 176.195 89.7284C176.713 89.7284 176.953 89.3864 176.953 88.805C176.953 87.3638 174.791 87.2252 174.791 85.406C174.791 84.4082 175.253 83.7896 176.223 83.7896C177.202 83.7902 177.664 84.4274 177.664 85.4066Z" fill="white"/>
<path d="M245.295 85.4156V85.9976H244.611V85.3784C244.611 84.7964 244.381 84.4454 243.854 84.4454C243.337 84.4454 243.097 84.7964 243.097 85.3784V88.796C243.097 89.378 243.337 89.729 243.854 89.729C244.381 89.729 244.611 89.378 244.611 88.796V87.9554H245.295V88.7588C245.295 89.738 244.833 90.3848 243.836 90.3848C242.848 90.3848 242.386 89.738 242.386 88.7588V85.415C242.386 84.4358 242.848 83.7896 243.836 83.7896C244.834 83.7902 245.295 84.4364 245.295 85.4156Z" fill="#5472DC"/>
<path d="M246.681 89.0178L246.432 90.3205H245.766L247.005 83.8542H248.049L249.286 90.3205H248.566L248.316 89.0178H246.681ZM246.773 88.3992H248.214L247.485 84.6678L246.773 88.3992Z" fill="#5472DC"/>
<path d="M250.487 90.3205H249.84V83.8542H250.755L252.251 88.5283V83.8542H252.889V90.3205H252.14L250.487 85.0927V90.3205H250.487Z" fill="#5472DC"/>
<path d="M256.482 85.4156V85.9976H255.798V85.3784C255.798 84.7964 255.568 84.4454 255.041 84.4454C254.524 84.4454 254.284 84.7964 254.284 85.3784V88.796C254.284 89.378 254.524 89.729 255.041 89.729C255.568 89.729 255.798 89.378 255.798 88.796V87.9554H256.482V88.7588C256.482 89.738 256.02 90.3848 255.023 90.3848C254.034 90.3848 253.573 89.738 253.573 88.7588V85.415C253.573 84.4358 254.035 83.7896 255.023 83.7896C256.02 83.7902 256.482 84.4364 256.482 85.4156Z" fill="#5472DC"/>
<path d="M259.438 86.7181V87.3648H257.858V89.6647H259.799V90.3205H257.138V83.8542H259.799V84.51H257.858V86.7175H259.438V86.7181Z" fill="#5472DC"/>
<path d="M260.464 90.3205V83.8542H261.184V89.664H263.032V90.3198H260.464V90.3205Z" fill="#5472DC"/>
<path d="M263.576 90.3205V83.8542H264.297V89.664H266.144V90.3198H263.576V90.3205Z" fill="#5472DC"/>
<path d="M268.99 86.7181V87.3648H267.41V89.6647H269.351V90.3205H266.69V83.8542H269.351V84.51H267.41V86.7175H268.99V86.7181Z" fill="#5472DC"/>
<path d="M271.53 83.8542C272.537 83.8542 272.999 84.4638 272.999 85.4616V88.7221C272.999 89.7109 272.537 90.3205 271.53 90.3205H270.015V83.8542H271.53ZM271.522 89.664C272.039 89.664 272.288 89.3406 272.288 88.7496V85.4245C272.288 84.8335 272.038 84.5095 271.512 84.5095H270.736V89.6635L271.522 89.664Z" fill="#5472DC"/>
<path d="M164.915 101.44H164.222L163.151 96.2947V101.449H162.522V94.9832H163.529L164.591 100.146L165.616 94.9832H166.623V101.449H165.94V96.2486L164.915 101.44Z" fill="white"/>
<path d="M168.092 100.146L167.843 101.449H167.178L168.416 94.9832H169.46L170.697 101.449H169.977L169.727 100.146H168.092ZM168.185 99.5275H169.626L168.897 95.7955L168.185 99.5275Z" fill="white"/>
<path d="M172.777 94.9835C173.784 94.9835 174.246 95.5931 174.246 96.5903V99.8507C174.246 100.84 173.784 101.449 172.777 101.449H171.262V94.9829H172.777V94.9835ZM172.768 100.793C173.285 100.793 173.534 100.47 173.534 99.8789V96.5537C173.534 95.9627 173.285 95.6393 172.759 95.6393H171.982V100.793H172.768Z" fill="white"/>
<path d="M176.361 94.9835C177.377 94.9835 177.802 95.5001 177.802 96.4613V96.9875C177.802 97.6985 177.553 98.1419 176.999 98.3177C177.59 98.4929 177.811 98.9735 177.811 99.6659V100.673C177.811 100.959 177.82 101.227 177.941 101.449H177.211C177.128 101.264 177.091 101.098 177.091 100.663V99.6473C177.091 98.9177 176.75 98.6867 176.149 98.6867H175.641V101.449H174.921V94.9829H176.361V94.9835ZM176.177 98.0315C176.75 98.0315 177.091 97.8467 177.091 97.1447V96.5255C177.091 95.9435 176.879 95.6387 176.343 95.6387H175.641V98.0315H176.177Z" fill="white"/>
<path d="M179.28 94.9832V101.449H178.559V94.9832H179.28Z" fill="white"/>
<path d="M181.534 94.9835C182.541 94.9835 183.003 95.5931 183.003 96.5903V99.8507C183.003 100.84 182.541 101.449 181.534 101.449H180.019V94.9829H181.534V94.9835ZM181.525 100.793C182.042 100.793 182.291 100.47 182.291 99.8789V96.5537C182.291 95.9627 182.042 95.6393 181.516 95.6393H180.739V100.793H181.525Z" fill="white"/>
<path d="M245.295 96.5447V97.1261H244.611V96.5075C244.611 95.9255 244.381 95.5745 243.854 95.5745C243.337 95.5745 243.097 95.9255 243.097 96.5075V99.9251C243.097 100.507 243.337 100.858 243.854 100.858C244.381 100.858 244.611 100.507 244.611 99.9251V99.0845H245.295V99.8879C245.295 100.867 244.833 101.514 243.836 101.514C242.848 101.514 242.386 100.867 242.386 99.8879V96.5441C242.386 95.5649 242.848 94.9187 243.836 94.9187C244.834 94.9187 245.295 95.5649 245.295 96.5447Z" fill="#5472DC"/>
<path d="M246.681 100.146L246.432 101.449H245.766L247.005 94.9832H248.049L249.286 101.449H248.566L248.316 100.146H246.681ZM246.773 99.5275H248.214L247.485 95.7955L246.773 99.5275Z" fill="#5472DC"/>
<path d="M250.487 101.449H249.84V94.9832H250.755L252.251 99.6565V94.9832H252.889V101.449H252.14L250.487 96.2209V101.449H250.487Z" fill="#5472DC"/>
<path d="M256.482 96.5447V97.1261H255.798V96.5075C255.798 95.9255 255.568 95.5745 255.041 95.5745C254.524 95.5745 254.284 95.9255 254.284 96.5075V99.9251C254.284 100.507 254.524 100.858 255.041 100.858C255.568 100.858 255.798 100.507 255.798 99.9251V99.0845H256.482V99.8879C256.482 100.867 256.02 101.514 255.023 101.514C254.034 101.514 253.573 100.867 253.573 99.8879V96.5441C253.573 95.5649 254.035 94.9187 255.023 94.9187C256.02 94.9187 256.482 95.5649 256.482 96.5447Z" fill="#5472DC"/>
<path d="M259.438 97.8463V98.4931H257.858V100.793H259.799V101.449H257.138V94.9832H259.799V95.6384H257.858V97.8458L259.438 97.8463Z" fill="#5472DC"/>
<path d="M260.464 101.449V94.9832H261.184V100.793H263.032V101.449H260.464Z" fill="#5472DC"/>
<path d="M263.576 101.449V94.9832H264.297V100.793H266.144V101.449H263.576Z" fill="#5472DC"/>
<path d="M268.99 97.8463V98.4931H267.41V100.793H269.351V101.449H266.69V94.9832H269.351V95.6384H267.41V97.8458L268.99 97.8463Z" fill="#5472DC"/>
<path d="M271.53 94.9835C272.537 94.9835 272.999 95.5931 272.999 96.5903V99.8507C272.999 100.84 272.537 101.449 271.53 101.449H270.015V94.9829H271.53V94.9835ZM271.522 100.793C272.039 100.793 272.288 100.47 272.288 99.8789V96.5537C272.288 95.9627 272.038 95.6393 271.512 95.6393H270.736V100.793H271.522Z" fill="#5472DC"/>
<path d="M163.973 106.112C164.989 106.112 165.414 106.63 165.414 107.59V108.117C165.414 108.828 165.164 109.271 164.611 109.447C165.202 109.622 165.423 110.102 165.423 110.795V111.802C165.423 112.088 165.432 112.356 165.553 112.578H164.823C164.74 112.393 164.703 112.227 164.703 111.793V110.777C164.703 110.047 164.362 109.816 163.761 109.816H163.253V112.578H162.532V106.112H163.973ZM163.789 109.16C164.362 109.16 164.703 108.976 164.703 108.274V107.654C164.703 107.073 164.491 106.768 163.955 106.768H163.253V109.16H163.789Z" fill="white"/>
<path d="M166.117 107.674C166.117 106.686 166.606 106.049 167.595 106.049C168.592 106.049 169.081 106.686 169.081 107.674V111.018C169.081 111.997 168.592 112.644 167.595 112.644C166.606 112.644 166.117 111.997 166.117 111.018V107.674ZM166.828 111.054C166.828 111.645 167.077 111.987 167.595 111.987C168.121 111.987 168.361 111.645 168.361 111.054V107.637C168.361 107.055 168.121 106.704 167.595 106.704C167.077 106.704 166.828 107.055 166.828 107.637V111.054Z" fill="white"/>
<path d="M172.149 112.569H171.456L170.385 107.424V112.578H169.756V106.113H170.763L171.825 111.276L172.851 106.113H173.857V112.578H173.174V107.378L172.149 112.569Z" fill="white"/>
<path d="M176.897 108.976V109.623H175.317V111.922H177.257V112.578H174.597V106.113H177.257V106.768H175.317V108.976H176.897Z" fill="white"/>
<path d="M214.388 63.1581V63.3243C214.388 63.9891 214.12 64.4601 213.603 64.6545C214.147 64.8579 214.388 65.3469 214.388 65.9937V66.4929C214.388 67.4811 213.926 68.1279 212.929 68.1279C211.94 68.1279 211.478 67.4811 211.478 66.4929V66.0495H212.153V66.5391C212.153 67.1211 212.393 67.4721 212.91 67.4721C213.437 67.4721 213.667 67.1301 213.667 66.4749V65.9763C213.667 65.3385 213.399 65.0343 212.855 65.0157H212.467V64.3689H212.891C213.371 64.3503 213.667 64.0455 213.667 63.4821V63.1863C213.667 62.5215 213.437 62.1795 212.91 62.1795C212.392 62.1795 212.153 62.5401 212.153 63.1215V63.4539H211.478V63.1581C211.478 62.1693 211.94 61.5327 212.929 61.5327C213.926 61.5327 214.388 62.1699 214.388 63.1581Z" fill="white"/>
<path d="M216.411 62.7698C216.171 62.9174 215.857 63.0284 215.515 63.047V62.456C216.217 62.4284 216.458 62.0498 216.624 61.5974H217.123V68.063H216.411V62.7698Z" fill="white"/>
<path d="M214.424 74.2965C214.424 76.2453 212.235 76.9473 212.226 78.4347V78.5361H214.351V79.1919H211.514V78.6375C211.514 76.5501 213.704 76.1439 213.704 74.3241C213.704 73.6593 213.482 73.3077 212.947 73.3077C212.42 73.3077 212.189 73.6869 212.189 74.2593V74.8323H211.515V74.3061C211.515 73.3173 211.968 72.6621 212.965 72.6621C213.972 72.6615 214.424 73.3077 214.424 74.2965Z" fill="white"/>
<path d="M217.243 73.3726H215.044V72.7258H217.972V73.354L216.31 79.1914H215.589L217.243 73.3726Z" fill="white"/>
<path d="M214.424 85.4248C214.424 87.3736 212.235 88.0756 212.226 89.563V89.6644H214.35V90.3202H211.514V89.7658C211.514 87.6784 213.704 87.2722 213.704 85.4524C213.704 84.7876 213.482 84.4366 212.946 84.4366C212.42 84.4366 212.189 84.8158 212.189 85.3882V85.9612H211.515V85.435C211.515 84.4462 211.968 83.791 212.965 83.791C213.972 83.7898 214.424 84.436 214.424 85.4248Z" fill="white"/>
<path d="M218.056 85.3883V85.5917C218.056 86.2475 217.825 86.7275 217.316 86.9219C217.852 87.1343 218.056 87.6425 218.056 88.2887V88.7693C218.056 89.7665 217.538 90.3857 216.531 90.3857C215.524 90.3857 215.007 89.7665 215.007 88.7693V88.2887C215.007 87.6329 215.21 87.1433 215.755 86.9219C215.228 86.7185 215.007 86.2475 215.007 85.5917V85.3883C215.007 84.3911 215.534 83.7905 216.531 83.7905C217.529 83.7905 218.056 84.3911 218.056 85.3883ZM215.719 85.4069V85.7207C215.719 86.3483 216.023 86.6255 216.531 86.6255C217.039 86.6255 217.344 86.3483 217.344 85.7207V85.4069C217.344 84.7415 217.039 84.4367 216.531 84.4367C216.023 84.4367 215.719 84.7415 215.719 85.4069ZM215.719 88.2053V88.7507C215.719 89.4155 216.014 89.7299 216.531 89.7299C217.049 89.7299 217.335 89.4161 217.344 88.7507V88.2053C217.344 87.5771 217.067 87.2729 216.531 87.2729C215.996 87.2729 215.719 87.5771 215.719 88.2053Z" fill="white"/>
<path d="M214.424 96.554C214.424 98.5028 212.235 99.2048 212.226 100.692V100.794H214.351V101.449H211.514V100.896C211.514 98.8076 213.704 98.4014 213.704 96.5816C213.704 95.9168 213.482 95.5658 212.947 95.5658C212.42 95.5658 212.189 95.9444 212.189 96.5174V97.0904H211.515V96.5642C211.515 95.576 211.968 94.9202 212.965 94.9202C213.972 94.919 214.424 95.5652 214.424 96.554Z" fill="white"/>
<path d="M217.991 96.545V99.842C217.991 100.867 217.529 101.514 216.495 101.514C215.506 101.514 215.035 100.876 215.035 99.8882V99.7682H215.71V99.9344C215.71 100.516 215.959 100.858 216.476 100.858C217.03 100.858 217.27 100.507 217.27 99.824V98.3738C217.095 98.8172 216.744 99.0578 216.226 99.0578C215.395 99.0578 215.026 98.4668 215.026 97.5338V96.5456C215.026 95.5568 215.506 94.9202 216.504 94.9202C217.501 94.919 217.991 95.5562 217.991 96.545ZM215.737 96.5078V97.4774C215.737 98.0594 215.987 98.4104 216.504 98.4104C217.03 98.4104 217.27 98.0594 217.27 97.4774V96.5078C217.27 95.9168 217.03 95.5748 216.504 95.5748C215.987 95.5748 215.737 95.9162 215.737 96.5078Z" fill="white"/>
<path d="M214.138 111.275V112.578H213.437V111.275H211.349V110.62L213.353 106.112H214.138V110.62H214.656V111.275H214.138ZM212.014 110.62H213.437V107.461L212.014 110.62Z" fill="white"/>
<path d="M215.155 107.674C215.155 106.686 215.645 106.049 216.633 106.049C217.631 106.049 218.12 106.686 218.12 107.674V111.008C218.12 111.996 217.63 112.643 216.633 112.643C215.644 112.643 215.155 111.996 215.155 111.008V107.674ZM215.866 111.054C215.866 111.636 216.116 111.987 216.633 111.987C217.16 111.987 217.4 111.636 217.4 111.054V107.637C217.4 107.046 217.16 106.695 216.633 106.695C216.116 106.695 215.866 107.046 215.866 107.637V111.054Z" fill="white"/>
<path d="M131.056 62.7698C130.817 62.9174 130.502 63.0284 130.16 63.047V62.456C130.862 62.4284 131.103 62.0498 131.269 61.5974H131.768V68.063H131.056V62.7698Z" fill="white"/>
<path d="M135.767 63.1674C135.767 65.1162 133.578 65.8182 133.569 67.3056V67.407H135.694V68.0628H132.858V67.509C132.858 65.421 135.047 65.0148 135.047 63.195C135.047 62.5302 134.826 62.1786 134.29 62.1786C133.764 62.1786 133.533 62.5572 133.533 63.1302V63.7032H132.859V63.177C132.859 62.1888 133.312 61.533 134.309 61.533C135.315 61.5324 135.767 62.1786 135.767 63.1674Z" fill="white"/>
<path d="M137.125 63.6475V64.5433H136.433V63.6475H137.125ZM137.125 67.1665V68.0623H136.433V67.1665H137.125Z" fill="white"/>
<path d="M140.737 63.1581V63.3243C140.737 63.9891 140.469 64.4601 139.952 64.6545C140.497 64.8579 140.737 65.3469 140.737 65.9937V66.4929C140.737 67.4811 140.275 68.1279 139.278 68.1279C138.289 68.1279 137.828 67.4811 137.828 66.4929V66.0495H138.502V66.5391C138.502 67.1211 138.742 67.4721 139.259 67.4721C139.786 67.4721 140.017 67.1301 140.017 66.4749V65.9763C140.017 65.3385 139.748 65.0343 139.204 65.0157H138.816V64.3689H139.241C139.721 64.3503 140.017 64.0455 140.017 63.4821V63.1863C140.017 62.5215 139.786 62.1795 139.259 62.1795C138.742 62.1795 138.502 62.5401 138.502 63.1215V63.4539H137.828V63.1581C137.828 62.1693 138.29 61.5327 139.278 61.5327C140.275 61.5327 140.737 62.1699 140.737 63.1581Z" fill="white"/>
<path d="M144.34 63.1579V66.4549C144.34 67.4803 143.878 68.1271 142.843 68.1271C141.854 68.1271 141.384 67.4899 141.384 66.5017V66.3817H142.058V66.5479C142.058 67.1299 142.307 67.4719 142.825 67.4719C143.38 67.4719 143.62 67.1209 143.62 66.4375V64.9873C143.444 65.4307 143.093 65.6713 142.576 65.6713C141.745 65.6713 141.375 65.0803 141.375 64.1473V63.1591C141.375 62.1703 141.855 61.5337 142.853 61.5337C143.851 61.5337 144.34 62.1697 144.34 63.1579ZM142.087 63.1207V64.0903C142.087 64.6723 142.336 65.0233 142.853 65.0233C143.38 65.0233 143.62 64.6723 143.62 64.0903V63.1207C143.62 62.5297 143.38 62.1883 142.853 62.1883C142.336 62.1883 142.087 62.5297 142.087 63.1207Z" fill="white"/>
<path d="M164.047 49.2454C165.054 49.2454 165.516 49.855 165.516 50.8522V54.1126C165.516 55.1014 165.054 55.7104 164.047 55.7104H162.532V49.2454H164.047ZM164.038 55.0546C164.555 55.0546 164.804 54.7318 164.804 54.1402V50.815C164.804 50.224 164.555 49.9006 164.029 49.9006H163.252V55.0546H164.038Z" fill="white"/>
<path d="M168.49 52.108V52.7548H166.91V55.0546H168.851V55.7104H166.19V49.2454H168.851V49.9006H166.91V52.108H168.49Z" fill="white"/>
<path d="M172.314 50.7963V50.9721H171.631V50.7597C171.631 50.1777 171.409 49.8363 170.892 49.8363C170.374 49.8363 170.154 50.1777 170.154 50.7507C170.154 52.2009 172.324 52.3395 172.324 54.1587C172.324 55.1379 171.853 55.7751 170.865 55.7751C169.876 55.7751 169.415 55.1373 169.415 54.1587V53.7891H170.089V54.1953C170.089 54.7773 170.329 55.1193 170.847 55.1193C171.364 55.1193 171.604 54.7773 171.604 54.1953C171.604 52.7547 169.442 52.6161 169.442 50.7963C169.442 49.7991 169.904 49.1799 170.874 49.1799C171.853 49.1805 172.314 49.8177 172.314 50.7963Z" fill="white"/>
<path d="M173.886 55.7104V49.9006H172.694V49.2454H175.788V49.9006H174.597V55.7104H173.886Z" fill="white"/>
<path d="M176.998 49.2454V55.711H176.278V49.2454H176.998Z" fill="white"/>
<path d="M178.375 55.7104H177.728V49.2454H178.643L180.14 53.9188V49.2454H180.777V55.711H180.029L178.376 50.4832V55.7104H178.375Z" fill="white"/>
<path d="M182.245 54.4084L181.996 55.711H181.331L182.569 49.2454H183.613L184.85 55.711H184.13L183.88 54.4084H182.245ZM182.338 53.7892H183.779L183.049 50.0572L182.338 53.7892Z" fill="white"/>
<path d="M185.996 55.7104V49.9006H184.805V49.2454H187.899V49.9006H186.707V55.7104H185.996Z" fill="white"/>
<path d="M189.109 49.2454V55.711H188.389V49.2454H189.109Z" fill="white"/>
<path d="M189.792 50.8058C189.792 49.8176 190.281 49.1804 191.27 49.1804C192.268 49.1804 192.757 49.8176 192.757 50.8058V54.1496C192.757 55.1288 192.268 55.775 191.27 55.775C190.281 55.775 189.792 55.1282 189.792 54.1496V50.8058ZM190.504 54.1862C190.504 54.7772 190.754 55.1192 191.27 55.1192C191.797 55.1192 192.036 54.7772 192.036 54.1862V50.7686C192.036 50.1866 191.796 49.8356 191.27 49.8356C190.753 49.8356 190.504 50.1866 190.504 50.7686V54.1862Z" fill="white"/>
<path d="M194.079 55.7104H193.432V49.2454H194.347L195.844 53.9188V49.2454H196.481V55.711H195.733L194.08 50.4832V55.7104H194.079Z" fill="white"/>
<path d="M243.881 49.2454C244.898 49.2454 245.322 49.762 245.322 50.7232V51.2494C245.322 51.9604 245.073 52.4038 244.519 52.5796C245.11 52.7548 245.331 53.2354 245.331 53.9284V54.9352C245.331 55.2214 245.34 55.4896 245.461 55.711H244.731C244.648 55.5262 244.611 55.36 244.611 54.9256V53.9098C244.611 53.1802 244.27 52.9492 243.669 52.9492H243.161V55.711H242.441V49.2454H243.881ZM243.697 52.2934C244.27 52.2934 244.611 52.1086 244.611 51.4066V50.7874C244.611 50.2054 244.399 49.9006 243.863 49.9006H243.161V52.2934H243.697Z" fill="white"/>
<path d="M248.38 52.108V52.7548H246.8V55.0546H248.741V55.7104H246.08V49.2454H248.741V49.9006H246.8V52.108H248.38Z" fill="white"/>
<path d="M251.79 55.7014H251.097L250.026 50.5564V55.7104H249.397V49.2454H250.404L251.466 54.4084L252.491 49.2454H253.498V55.711H252.815V50.5108L251.79 55.7014Z" fill="white"/>
<path d="M254.967 54.4084L254.718 55.711H254.053L255.291 49.2454H256.335L257.573 55.711H256.852L256.603 54.4084H254.967ZM255.06 53.7892H256.501L255.772 50.0572L255.06 53.7892Z" fill="white"/>
<path d="M259.577 49.2454C260.593 49.2454 261.018 49.762 261.018 50.7232V51.2494C261.018 51.9604 260.768 52.4038 260.215 52.5796C260.806 52.7548 261.027 53.2354 261.027 53.9284V54.9352C261.027 55.2214 261.036 55.4896 261.157 55.711H260.427C260.344 55.5262 260.307 55.36 260.307 54.9256V53.9098C260.307 53.1802 259.966 52.9492 259.365 52.9492H258.857V55.711H258.136V49.2454H259.577ZM259.392 52.2934C259.965 52.2934 260.306 52.1086 260.306 51.4066V50.7874C260.306 50.2054 260.094 49.9006 259.558 49.9006H258.856V52.2934H259.392Z" fill="white"/>
<path d="M262.875 52.903L262.496 53.5402V55.711H261.776V49.2454H262.496V52.3672L264.214 49.2454H264.944L263.309 52.1914L264.999 55.711H264.26L262.875 52.903Z" fill="white"/>
<path d="M268.306 50.7963V50.9721H267.623V50.7597C267.623 50.1777 267.401 49.8363 266.884 49.8363C266.366 49.8363 266.144 50.1777 266.144 50.7507C266.144 52.2009 268.315 52.3395 268.315 54.1587C268.315 55.1379 267.844 55.7751 266.856 55.7751C265.867 55.7751 265.406 55.1373 265.406 54.1587V53.7891H266.08V54.1953C266.08 54.7773 266.32 55.1193 266.837 55.1193C267.355 55.1193 267.595 54.7773 267.595 54.1953C267.595 52.7547 265.433 52.6161 265.433 50.7963C265.433 49.7991 265.895 49.1799 266.865 49.1799C267.845 49.1805 268.306 49.8177 268.306 50.7963Z" fill="white"/>
<path d="M214.369 50.8059V51.3597H213.685V50.7687C213.685 50.1867 213.455 49.8357 212.928 49.8357C212.411 49.8357 212.171 50.1867 212.171 50.7687V54.1863C212.171 54.7683 212.411 55.1193 212.928 55.1193C213.455 55.1193 213.685 54.7683 213.685 54.1863V52.8933H213.02V52.2465H214.369V54.1491C214.369 55.1283 213.907 55.7745 212.909 55.7745C211.921 55.7745 211.459 55.1277 211.459 54.1491V50.8053C211.459 49.8261 211.921 49.1799 212.909 49.1799C213.908 49.1805 214.369 49.8267 214.369 50.8059Z" fill="white"/>
<path d="M215.774 54.4084L215.525 55.711H214.859L216.098 49.2454H217.142L218.38 55.711H217.659L217.41 54.4084H215.774ZM215.866 53.7892H217.307L216.578 50.0572L215.866 53.7892Z" fill="white"/>
<path d="M219.524 55.7104V49.9006H218.333V49.2454H221.427V49.9006H220.235V55.7104H219.524Z" fill="white"/>
<path d="M224.216 52.108V52.7548H222.637V55.0546H224.576V55.7104H221.916V49.2454H224.576V49.9006H222.637V52.108H224.216Z" fill="white"/>
<path d="M130.678 55.7104V49.9006H129.486V49.2454H132.59V49.9006H131.398V55.7104H130.678Z" fill="white"/>
<path d="M133.809 49.2454V55.711H133.089V49.2454H133.809Z" fill="white"/>
<path d="M136.931 55.7014H136.238L135.167 50.5564V55.7104H134.539V49.2454H135.545L136.607 54.4084L137.633 49.2454H138.64V55.711H137.956V50.5108L136.931 55.7014Z" fill="white"/>
<path d="M141.68 52.108V52.7548H140.1V55.0546H142.04V55.7104H139.38V49.2454H142.04V49.9006H140.1V52.108H141.68Z" fill="white"/>
<path d="M150.56 30.9072C152.098 30.9072 152.803 31.8384 152.803 33.3618V38.3424C152.803 39.852 152.098 40.7832 150.56 40.7832H148.246V30.9072H150.56ZM150.545 39.7818C151.336 39.7818 151.717 39.288 151.717 38.385V33.306C151.717 32.403 151.336 31.9092 150.532 31.9092H149.347V39.7818H150.545Z" fill="white"/>
<path d="M157.345 35.2812V36.2688H154.932V39.7818H157.895V40.7832H153.832V30.9072H157.895V31.9086H154.932V35.2806H157.345V35.2812Z" fill="white"/>
<path d="M161.068 30.9072C162.62 30.9072 163.283 31.8246 163.283 33.3198V34.5048C163.283 36.0708 162.549 36.8892 160.983 36.8892H160.009V40.7832H158.909V30.9072H161.068ZM160.983 35.9016C161.802 35.9016 162.197 35.5206 162.197 34.5756V33.2634C162.197 32.3604 161.872 31.9092 161.068 31.9092H160.01V35.9022H160.983V35.9016Z" fill="white"/>
<path d="M165.073 38.7942L164.693 40.7838H163.676L165.567 30.9072H167.16L169.051 40.7838H167.951L167.57 38.7942H165.073ZM165.215 37.8492H167.416L166.301 32.1486L165.215 37.8492Z" fill="white"/>
<path d="M172.112 30.9072C173.664 30.9072 174.313 31.6968 174.313 33.1644V33.9684C174.313 35.055 173.932 35.7324 173.086 36.0006C173.989 36.2688 174.326 37.002 174.326 38.0604V39.5982C174.326 40.0356 174.341 40.4448 174.524 40.7832H173.41C173.283 40.5012 173.227 40.2474 173.227 39.5838V38.0316C173.227 36.9174 172.705 36.5646 171.788 36.5646H171.011V40.7832H169.911V30.9072H172.112ZM171.83 35.5632C172.705 35.5632 173.227 35.2812 173.227 34.209V33.2634C173.227 32.3742 172.902 31.9092 172.084 31.9092H171.011V35.5638L171.83 35.5632Z" fill="white"/>
<path d="M176.893 40.784V31.9094H175.072V30.908H179.8V31.9094H177.979V40.784H176.893Z" fill="white"/>
<path d="M181.59 38.4552C181.59 39.3444 181.942 39.8802 182.747 39.8802C183.537 39.8802 183.889 39.3444 183.889 38.4552V30.9072H184.92V38.3988C184.92 39.8946 184.228 40.896 182.704 40.896C181.195 40.896 180.503 39.8946 180.503 38.3988V30.9072H181.59V38.4552H181.59Z" fill="white"/>
<path d="M188.206 30.9072C189.758 30.9072 190.406 31.6968 190.406 33.1644V33.9684C190.406 35.055 190.026 35.7324 189.179 36.0006C190.082 36.2688 190.42 37.002 190.42 38.0604V39.5982C190.42 40.0356 190.435 40.4448 190.618 40.7832H189.504C189.377 40.5012 189.32 40.2474 189.32 39.5838V38.0316C189.32 36.9174 188.798 36.5646 187.882 36.5646H187.105V40.7832H186.005V30.9072H188.206ZM187.923 35.5632C188.798 35.5632 189.32 35.2812 189.32 34.209V33.2634C189.32 32.3742 188.995 31.9092 188.177 31.9092H187.104V35.5638L187.923 35.5632Z" fill="white"/>
<path d="M195.074 35.2812V36.2688H192.662V39.7818H195.625V40.7832H191.561V30.9072H195.625V31.9086H192.662V35.2806H195.074V35.2812Z" fill="white"/>
<path d="M200.914 33.278V33.5462H199.87V33.2216C199.87 32.333 199.532 31.811 198.741 31.811C197.951 31.811 197.612 32.333 197.612 33.2078C197.612 35.423 200.928 35.6348 200.928 38.414C200.928 39.9098 200.208 40.883 198.698 40.883C197.189 40.883 196.484 39.9098 196.484 38.414V37.85H197.513V38.4704C197.513 39.359 197.881 39.8816 198.67 39.8816C199.461 39.8816 199.828 39.3596 199.828 38.4704C199.828 36.2696 196.526 36.0578 196.526 33.2786C196.526 31.7546 197.231 30.8096 198.712 30.8096C200.209 30.8084 200.914 31.7822 200.914 33.278Z" fill="white"/>
<path d="M131.056 73.8991C130.817 74.0467 130.502 74.1577 130.16 74.1763V73.5853C130.862 73.5577 131.103 73.1791 131.269 72.7261H131.768V79.1917H131.056V73.8991Z" fill="white"/>
<path d="M135.767 74.2965C135.767 76.2453 133.578 76.9473 133.569 78.4347V78.5361H135.694V79.1919H132.858V78.6375C132.858 76.5501 135.047 76.1439 135.047 74.3241C135.047 73.6593 134.826 73.3077 134.29 73.3077C133.764 73.3077 133.533 73.6869 133.533 74.2593V74.8323H132.859V74.3061C132.859 73.3173 133.312 72.6621 134.309 72.6621C135.315 72.6615 135.767 73.3077 135.767 74.2965Z" fill="white"/>
<path d="M137.125 74.7766V75.6724H136.433V74.7766H137.125ZM137.125 78.2962V79.192H136.433V78.2962H137.125Z" fill="white"/>
<path d="M138.584 75.3583C138.788 75.0073 139.111 74.8225 139.546 74.8225C140.377 74.8225 140.746 75.4321 140.746 76.3561V77.6215C140.746 78.6097 140.275 79.2565 139.287 79.2565C138.299 79.2565 137.837 78.6097 137.837 77.6215V77.1871H138.511V77.6671C138.511 78.2491 138.751 78.6001 139.268 78.6001C139.786 78.6001 140.026 78.2491 140.026 77.6671V76.4107C140.026 75.8287 139.786 75.4783 139.268 75.4783C138.871 75.4783 138.604 75.6997 138.539 76.1707V76.3183H137.864L138.041 72.7249H140.59V73.3717H138.687L138.584 75.3583Z" fill="white"/>
<path d="M141.384 74.2875C141.384 73.2987 141.874 72.6621 142.862 72.6621C143.86 72.6621 144.349 73.2993 144.349 74.2875V77.6217C144.349 78.6099 143.86 79.2567 142.862 79.2567C141.873 79.2567 141.384 78.6099 141.384 77.6217V74.2875ZM142.096 77.6679C142.096 78.2499 142.345 78.6009 142.863 78.6009C143.389 78.6009 143.629 78.2499 143.629 77.6679V74.2503C143.629 73.6593 143.389 73.3083 142.863 73.3083C142.346 73.3083 142.096 73.6593 142.096 74.2503V77.6679Z" fill="white"/>
<path d="M131.056 85.0272C130.817 85.1748 130.502 85.2859 130.16 85.3045V84.7135C130.862 84.6859 131.103 84.3072 131.269 83.8542H131.768V90.3205H131.056V85.0272Z" fill="white"/>
<path d="M135.731 85.4154V85.5816C135.731 86.2464 135.463 86.7174 134.946 86.9118C135.491 87.1152 135.731 87.6042 135.731 88.251V88.7496C135.731 89.7378 135.269 90.3846 134.272 90.3846C133.283 90.3846 132.821 89.7378 132.821 88.7496V88.3062H133.496V88.7952C133.496 89.3772 133.736 89.7282 134.253 89.7282C134.78 89.7282 135.01 89.3862 135.01 88.7304V88.2318C135.01 87.5946 134.742 87.2898 134.198 87.2712H133.81V86.6244H134.234C134.714 86.6058 135.01 86.301 135.01 85.7376V85.4418C135.01 84.777 134.78 84.435 134.253 84.435C133.735 84.435 133.496 84.795 133.496 85.377V85.71H132.821V85.4142C132.821 84.4254 133.283 83.7888 134.272 83.7888C135.269 83.79 135.731 84.4272 135.731 85.4154Z" fill="white"/>
<path d="M137.125 85.9053V86.8011H136.433V85.9053H137.125ZM137.125 89.4243V90.3201H136.433V89.4243H137.125Z" fill="white"/>
<path d="M140.737 85.4154V85.5816C140.737 86.2464 140.469 86.7174 139.952 86.9118C140.497 87.1152 140.737 87.6042 140.737 88.251V88.7496C140.737 89.7378 140.275 90.3846 139.278 90.3846C138.289 90.3846 137.828 89.7378 137.828 88.7496V88.3062H138.502V88.7952C138.502 89.3772 138.742 89.7282 139.259 89.7282C139.786 89.7282 140.017 89.3862 140.017 88.7304V88.2318C140.017 87.5946 139.748 87.2898 139.204 87.2712H138.816V86.6244H139.241C139.721 86.6058 140.017 86.301 140.017 85.7376V85.4418C140.017 84.777 139.786 84.435 139.259 84.435C138.742 84.435 138.502 84.795 138.502 85.377V85.71H137.828V85.4142C137.828 84.4254 138.29 83.7888 139.278 83.7888C140.275 83.79 140.737 84.4272 140.737 85.4154Z" fill="white"/>
<path d="M144.349 85.4251C144.349 87.3739 142.16 88.0759 142.151 89.5633V89.6647H144.275V90.3205H141.439V89.7661C141.439 87.6787 143.629 87.2725 143.629 85.4527C143.629 84.7879 143.407 84.4369 142.871 84.4369C142.345 84.4369 142.114 84.8161 142.114 85.3885V85.9615H141.44V85.4353C141.44 84.4465 141.893 83.7913 142.89 83.7913C143.897 83.7901 144.349 84.4363 144.349 85.4251Z" fill="white"/>
<path d="M131.056 96.1568C130.817 96.3044 130.502 96.4154 130.16 96.434V95.843C130.862 95.8154 131.103 95.4368 131.269 94.9844H131.768V101.45H131.056V96.1568Z" fill="white"/>
<path d="M135.731 96.5448V96.711C135.731 97.3758 135.463 97.8468 134.946 98.0412C135.491 98.2446 135.731 98.7336 135.731 99.3804V99.879C135.731 100.867 135.269 101.514 134.272 101.514C133.283 101.514 132.821 100.867 132.821 99.879V99.4356H133.496V99.9252C133.496 100.507 133.736 100.858 134.253 100.858C134.78 100.858 135.01 100.516 135.01 99.861V99.3624C135.01 98.7252 134.742 98.4204 134.198 98.4018H133.81V97.755H134.234C134.714 97.7364 135.01 97.4316 135.01 96.8682V96.5724C135.01 95.9076 134.78 95.5656 134.253 95.5656C133.735 95.5656 133.496 95.9256 133.496 96.5076V96.8406H132.821V96.5448C132.821 95.556 133.283 94.9194 134.272 94.9194C135.269 94.9188 135.731 95.556 135.731 96.5448Z" fill="white"/>
<path d="M137.125 97.0337V97.9295H136.433V97.0337H137.125ZM137.125 100.553V101.449H136.433V100.553H137.125Z" fill="white"/>
<path d="M140.488 100.146V101.449H139.786V100.146H137.698V99.4904L139.703 94.9832H140.488V99.4904H141.006V100.146H140.488ZM138.363 99.4904H139.786V96.3319L138.363 99.4904Z" fill="white"/>
<path d="M144.525 96.5165V96.7199C144.525 97.3757 144.294 97.8557 143.786 98.0501C144.321 98.2625 144.525 98.7707 144.525 99.4175V99.8975C144.525 100.895 144.007 101.514 143 101.514C141.994 101.514 141.476 100.895 141.476 99.8975V99.4175C141.476 98.7617 141.679 98.2721 142.225 98.0501C141.698 97.8467 141.476 97.3757 141.476 96.7199V96.5165C141.476 95.5193 142.003 94.9187 143 94.9187C143.998 94.9187 144.525 95.5193 144.525 96.5165ZM142.188 96.5351V96.8495C142.188 97.4777 142.493 97.7543 143 97.7543C143.509 97.7543 143.813 97.4771 143.813 96.8495V96.5351C143.813 95.8703 143.509 95.5655 143 95.5655C142.493 95.5649 142.188 95.8703 142.188 96.5351ZM142.188 99.3335V99.8789C142.188 100.544 142.484 100.858 143 100.858C143.518 100.858 143.804 100.544 143.813 99.8789V99.3335C143.813 98.7053 143.536 98.4005 143 98.4005C142.465 98.4011 142.188 98.7059 142.188 99.3335Z" fill="white"/>
<path d="M131.056 107.285C130.817 107.433 130.502 107.544 130.16 107.563V106.972C130.862 106.944 131.103 106.565 131.269 106.112H131.768V112.578H131.056V107.285Z" fill="white"/>
<path d="M133.578 108.745C133.781 108.394 134.105 108.209 134.539 108.209C135.371 108.209 135.74 108.818 135.74 109.742V111.008C135.74 111.996 135.269 112.643 134.28 112.643C133.291 112.643 132.83 111.996 132.83 111.008V110.573H133.504V111.053C133.504 111.635 133.744 111.986 134.261 111.986C134.779 111.986 135.019 111.635 135.019 111.053V109.797C135.019 109.215 134.779 108.864 134.261 108.864C133.864 108.864 133.597 109.085 133.532 109.556V109.704H132.857L133.034 106.111H135.583V106.757H133.68L133.578 108.745Z" fill="white"/>
<path d="M137.125 108.163V109.059H136.433V108.163H137.125ZM137.125 111.682V112.578H136.433V111.682H137.125Z" fill="white"/>
<path d="M139.185 107.286C138.945 107.433 138.631 107.544 138.289 107.563V106.972C138.991 106.944 139.232 106.566 139.398 106.113H139.897V112.578H139.185V107.286Z" fill="white"/>
<path d="M140.932 107.674C140.932 106.686 141.421 106.049 142.41 106.049C143.407 106.049 143.897 106.686 143.897 107.674V111.008C143.897 111.996 143.407 112.643 142.41 112.643C141.421 112.643 140.932 111.996 140.932 111.008V107.674ZM141.643 111.054C141.643 111.636 141.893 111.987 142.41 111.987C142.936 111.987 143.176 111.636 143.176 111.054V107.637C143.176 107.046 142.936 106.695 142.41 106.695C141.893 106.695 141.643 107.046 141.643 107.637V111.054Z" fill="white"/>
<path d="M245.295 107.674V108.256H244.611V107.636C244.611 107.054 244.381 106.703 243.854 106.703C243.337 106.703 243.097 107.054 243.097 107.636V111.054C243.097 111.636 243.337 111.987 243.854 111.987C244.381 111.987 244.611 111.636 244.611 111.054V110.213H245.295V111.017C245.295 111.996 244.833 112.643 243.836 112.643C242.848 112.643 242.386 111.996 242.386 111.017V107.673C242.386 106.694 242.848 106.048 243.836 106.048C244.834 106.048 245.295 106.694 245.295 107.674Z" fill="#5472DC"/>
<path d="M246.681 111.276L246.432 112.578H245.766L247.005 106.113H248.049L249.286 112.578H248.566L248.316 111.276H246.681ZM246.773 110.657H248.214L247.485 106.926L246.773 110.657Z" fill="#5472DC"/>
<path d="M250.487 112.578H249.84V106.113H250.755L252.251 110.787V106.113H252.889V112.578H252.14L250.487 107.35V112.578H250.487Z" fill="#5472DC"/>
<path d="M256.482 107.674V108.256H255.798V107.636C255.798 107.054 255.568 106.703 255.041 106.703C254.524 106.703 254.284 107.054 254.284 107.636V111.054C254.284 111.636 254.524 111.987 255.041 111.987C255.568 111.987 255.798 111.636 255.798 111.054V110.213H256.482V111.017C256.482 111.996 256.02 112.643 255.023 112.643C254.034 112.643 253.573 111.996 253.573 111.017V107.673C253.573 106.694 254.035 106.048 255.023 106.048C256.02 106.048 256.482 106.694 256.482 107.674Z" fill="#5472DC"/>
<path d="M259.438 108.976V109.623H257.858V111.922H259.799V112.578H257.138V106.113H259.799V106.768H257.858V108.976H259.438Z" fill="#5472DC"/>
<path d="M260.464 112.578V106.113H261.184V111.922H263.032V112.578H260.464Z" fill="#5472DC"/>
<path d="M263.576 112.578V106.113H264.297V111.922H266.144V112.578H263.576Z" fill="#5472DC"/>
<path d="M268.99 108.976V109.623H267.41V111.922H269.351V112.578H266.69V106.113H269.351V106.768H267.41V108.976H268.99Z" fill="#5472DC"/>
<path d="M271.53 106.113C272.537 106.113 272.999 106.722 272.999 107.72V110.98C272.999 111.969 272.537 112.578 271.53 112.578H270.015V106.113H271.53ZM271.522 111.922C272.039 111.922 272.288 111.6 272.288 111.008V107.683C272.288 107.092 272.038 106.768 271.512 106.768H270.736V111.922L271.522 111.922Z" fill="#5472DC"/>
<path d="M134.185 36.1981C134.185 36.7369 134.188 37.2271 134.185 37.7173C134.182 38.1529 134.299 38.6461 134.132 39.0085C133.972 39.3577 133.517 39.5719 133.192 39.8455C133.158 39.8737 133.114 39.8941 133.092 39.9289C133.058 39.9805 133.02 40.0411 133.019 40.0987C133.012 40.3981 133.015 40.6981 133.015 41.0239C133.575 40.8565 134.092 40.6891 134.616 40.5517C134.783 40.5079 134.98 40.5079 135.148 40.5499C135.674 40.6813 136.192 40.8421 136.717 40.9921C136.843 40.0975 136.816 40.0261 136.163 39.4999C136.01 39.3769 135.854 39.2575 135.708 39.1261C135.649 39.0727 135.576 38.9917 135.575 38.9221C135.566 38.0305 135.569 37.1383 135.569 36.1963C137.338 36.7429 139.064 37.2763 140.831 37.8223C140.831 37.4665 140.818 37.1617 140.836 36.8593C140.849 36.6355 140.77 36.5089 140.575 36.3931C138.999 35.4625 137.433 34.5157 135.857 33.5857C135.644 33.4603 135.557 33.3325 135.561 33.0757C135.58 31.8967 135.571 30.7177 135.575 29.5387C135.576 29.2183 135.471 28.9609 135.166 28.8193C134.672 28.5907 134.189 28.9387 134.186 29.5345C134.18 30.7243 134.179 31.9141 134.189 33.1039C134.191 33.3247 134.129 33.4501 133.929 33.5677C132.333 34.5061 130.745 35.4589 129.158 36.4117C129.064 36.4681 128.931 36.5629 128.926 36.6469C128.9 37.0303 128.915 37.4161 128.915 37.8439C130.714 37.2835 132.432 36.7459 134.185 36.1981Z" fill="white"/>
<path d="M134.185 36.1984C132.432 36.7462 130.713 37.2838 128.915 37.8454C128.915 37.417 128.902 37.0318 128.926 36.6484C128.932 36.5644 129.064 36.4696 129.158 36.4132C130.746 35.4598 132.334 34.5076 133.93 33.5692C134.129 33.4516 134.191 33.3262 134.189 33.1054C134.18 31.9156 134.181 30.7258 134.186 29.536C134.189 28.9396 134.673 28.5922 135.166 28.8208C135.472 28.9624 135.577 29.2198 135.575 29.5402C135.572 30.7192 135.58 31.8982 135.562 33.0772C135.557 33.334 135.645 33.4618 135.857 33.5872C137.434 34.5172 139 35.464 140.575 36.3946C140.771 36.5104 140.849 36.637 140.836 36.8608C140.818 37.1638 140.832 37.4686 140.832 37.8238C139.065 37.2778 137.338 36.7444 135.569 36.1978C135.569 37.1398 135.566 38.032 135.575 38.9236C135.576 38.9926 135.649 39.0742 135.709 39.1276C135.854 39.259 136.011 39.3778 136.164 39.5014C136.816 40.027 136.844 40.0984 136.717 40.9936C136.193 40.843 135.674 40.6822 135.149 40.5514C134.981 40.5094 134.783 40.5094 134.617 40.5532C134.092 40.6906 133.575 40.858 133.016 41.0254C133.016 40.699 133.012 40.3996 133.019 40.1002C133.021 40.0426 133.06 39.982 133.093 39.9304C133.115 39.8956 133.159 39.8752 133.192 39.847C133.518 39.5734 133.973 39.3592 134.133 39.01C134.299 38.6482 134.183 38.155 134.185 37.7188C134.188 37.2274 134.185 36.7372 134.185 36.1984Z" fill="white"/>
<path d="M69.0551 84.5846L70.8527 85.6634C70.8527 85.6634 70.8527 83.6258 70.9727 83.2664C71.0927 82.907 73.1303 83.027 73.1303 83.027C73.1303 83.027 72.5309 79.6712 70.1339 76.9142C67.7369 74.1578 63.3023 71.1614 58.6277 71.1614C53.9531 71.1614 48.9197 73.079 46.2827 77.2742C43.6457 81.4688 43.7657 86.2634 44.6045 88.8998C45.4433 91.5368 46.4021 98.7278 46.4021 98.7278C46.4021 98.7278 48.6791 98.8478 49.2785 98.2484C49.8779 97.649 49.6379 92.855 50.8367 90.0986C52.0355 87.3422 54.4325 86.2634 57.6683 85.784C60.9041 85.3046 67.7357 84.3458 67.7357 84.3458L69.0551 84.5846Z" fill="#263238" stroke="#263238" stroke-width="0.6" stroke-miterlimit="10" stroke-linecap="round" stroke-linejoin="round"/>
<path d="M59.8003 221.9C59.8003 221.9 57.8005 232.7 58.8001 240.3C59.8003 247.9 61.0003 262.3 61.0003 263.9C61.0003 265.5 61.0003 266.7 61.0003 266.7C61.0003 266.7 60.2005 266.7 60.2005 268.7C60.2005 270.7 59.8003 277.1 59.8003 278.1C59.8003 279.1 63.8005 279.7 64.6003 279.7C65.4001 279.7 69.2005 281.7 71.8003 282.501C74.4001 283.3 78.4003 283.701 78.8005 281.5C79.2007 279.3 76.6003 276.1 75.2005 274.9C73.8007 273.7 70.6003 269.5 70.6003 269.5C70.6003 269.5 70.4005 266.301 70.0003 265.5C69.6001 264.7 69.0001 265.3 69.0001 265.3C69.0001 265.3 73.0003 238.7 73.0003 236.1C73.0003 233.5 73.8001 226.3 73.8001 223.5C73.8001 220.7 59.8003 221.9 59.8003 221.9Z" fill="white" stroke="#263238" stroke-width="0.6" stroke-miterlimit="10" stroke-linecap="round" stroke-linejoin="round"/>
<path d="M73.7998 223.5C73.7998 220.7 59.8 221.9 59.8 221.9C59.8 221.9 59.3962 224.084 59.0422 227.176C60.0238 227.36 61.4482 227.503 63.5344 227.503C68.5462 227.503 71.9146 225.377 73.7914 224.041C73.7968 223.847 73.7998 223.664 73.7998 223.5Z" fill="#263238" stroke="#263238" stroke-width="0.6" stroke-miterlimit="10" stroke-linecap="round" stroke-linejoin="round"/>
<path d="M78.7998 281.5C79.2 279.299 76.5996 276.1 75.1998 274.9C73.8 273.7 70.5996 269.5 70.5996 269.5C70.5996 269.5 70.3998 266.3 69.9996 265.499C69.8076 265.116 69.5712 265.057 69.3756 265.097L69 265.3C69 265.3 66.7998 265.499 65.8002 265.9C64.8 266.3 64.6002 268.1 64.6002 268.1L61.0002 266.7C61.0002 266.7 60.2004 266.7 60.2004 268.7C60.2004 270.7 59.8002 277.1 59.8002 278.1C59.8002 279.1 63.8004 279.7 64.6002 279.7C65.4 279.7 69.2004 281.7 71.8002 282.5C74.4 283.3 78.4002 283.7 78.7998 281.5Z" fill="#263238" stroke="#263238" stroke-width="0.6" stroke-miterlimit="10" stroke-linecap="round" stroke-linejoin="round"/>
<path d="M71.8002 282.5C74.4 283.3 78.4002 283.7 78.8004 281.5C78.8496 281.23 78.852 280.945 78.819 280.651C74.9634 283.655 67.413 279.374 65.8002 278.299C64.362 277.34 61.1412 276.128 59.9034 275.679C59.8446 276.839 59.8002 277.768 59.8002 278.099C59.8002 279.1 63.8004 279.7 64.6002 279.7C65.4 279.7 69.1998 281.7 71.8002 282.5Z" fill="white" stroke="#263238" stroke-width="0.6" stroke-miterlimit="10" stroke-linecap="round" stroke-linejoin="round"/>
<path d="M43.3997 223.9C43.3997 223.9 41.7995 229.1 41.3999 236.9C41.0003 244.7 44.5997 256.9 44.9999 259.3C45.4001 261.7 43.9997 271.1 43.9997 271.1C43.9997 271.1 41.7995 275.1 40.5995 278.3C39.3995 281.5 40.3997 283.5 43.1993 283.9C45.9995 284.3 48.3995 283.9 49.9991 282.7C51.5993 281.5 52.5989 278.1 52.9991 277.5C53.3993 276.9 54.5993 276.1 54.5993 273.3C54.5993 270.5 53.7995 264.1 53.7995 262.5C53.7995 260.9 54.1997 251.9 54.7997 249.1C55.3997 246.3 56.1995 237.5 56.1995 233.7C56.1995 229.9 55.3997 224.1 55.3997 224.1C55.3997 224.1 46.1999 223.3 43.3997 223.9Z" fill="white" stroke="#263238" stroke-width="0.6" stroke-miterlimit="10" stroke-linecap="round" stroke-linejoin="round"/>
<path d="M55.7388 226.903C55.5612 225.272 55.3998 224.1 55.3998 224.1C55.3998 224.1 46.2 223.3 43.3998 223.9C43.3998 223.9 43.14 224.753 42.8046 226.265C44.052 226.795 45.8904 227.397 48.3282 227.729C51.597 228.175 54.2742 227.455 55.7388 226.903Z" fill="#263238" stroke="#263238" stroke-width="0.6" stroke-miterlimit="10" stroke-linecap="round" stroke-linejoin="round"/>
<path d="M52.9997 277.5C53.3999 276.9 54.5999 276.101 54.5999 273.3C54.5999 271.845 54.3839 269.418 54.1763 267.197C53.0057 268.7 52.1999 268.301 52.1999 268.301C52.1999 268.301 51.4001 265.101 48.7997 264.9C46.6421 264.734 45.0395 266.355 44.5553 266.913C44.2811 269.212 43.9997 271.1 43.9997 271.1C43.9997 271.1 41.7995 275.1 40.5995 278.3C39.3995 281.5 40.3997 283.5 43.1993 283.9C45.9995 284.3 48.3995 283.9 49.9991 282.7C51.5999 281.5 52.6001 278.1 52.9997 277.5Z" fill="#263238" stroke="#263238" stroke-width="0.6" stroke-miterlimit="10" stroke-linecap="round" stroke-linejoin="round"/>
<path d="M54.5761 273.922C53.8183 274.741 52.8901 275.699 51.9997 276.5C49.9999 278.3 50.1997 281.7 45.9997 282.5C43.4719 282.982 41.3845 281.943 40.1185 281.038C40.2505 282.634 41.3155 283.631 43.1995 283.9C45.9997 284.3 48.3997 283.9 49.9993 282.7C51.5995 281.5 52.5991 278.1 52.9993 277.5C53.3683 276.948 54.4135 276.221 54.5761 273.922Z" fill="white" stroke="#263238" stroke-width="0.6" stroke-miterlimit="10" stroke-linecap="round" stroke-linejoin="round"/>
<path d="M36.45 149.45L29.25 153.2C29.25 153.2 24.9 182.75 24.9 183.35C24.9 183.95 27.45 185.45 30.75 185.45C34.05 185.45 38.4 182.6 38.4 182.6C38.4 182.6 40.35 153.2 40.35 152.3C40.35 151.4 38.7 146.75 36.45 149.45Z" fill="#263238" stroke="#263238" stroke-width="0.6" stroke-miterlimit="10" stroke-linecap="round" stroke-linejoin="round"/>
<path d="M37 171.3C37 171.3 34.6 191.3 34.7998 195.3C34.9996 199.3 34.9996 207.3 34.9996 209.3C34.9996 211.3 34.3996 219.7 35.3998 220.9C36.4 222.1 39.1996 224.7 45.4 225.7C51.5998 226.7 52.7998 226.1 53.9998 225.5C55.1998 224.9 58.3996 223.7 58.3996 223.7C58.3996 223.7 59.1994 225.3 66.3994 225.7C73.5994 226.1 72.7996 225.3 74.3992 224.7C75.9994 224.1 78.199 223.099 79.1992 222.1C80.1994 221.1 77.599 200.9 77.599 198.7C77.599 196.5 78.199 183.7 78.3988 180.7C78.5986 177.7 76.999 175.5 76.999 173.9C76.999 172.3 76.999 167.7 76.999 167.7C76.999 167.7 63.9988 172.3 56.3992 172.3C48.7996 172.3 36.799 169.3 36.799 169.3L37 171.3Z" fill="white" stroke="#263238" stroke-width="0.6" stroke-miterlimit="10" stroke-linecap="round" stroke-linejoin="round"/>
<path d="M60.7996 175.1C60.7996 175.1 59.5996 180.7 60.3994 181.3C61.1998 181.9 62.3998 182.9 61.7998 184.7C61.1998 186.5 60.5998 187.7 60.5998 187.7" stroke="#263238" stroke-width="0.6" stroke-miterlimit="10" stroke-linecap="round" stroke-linejoin="round"/>
<path d="M50.5997 186.901L56.8001 190.3" stroke="#263238" stroke-width="0.6" stroke-miterlimit="10" stroke-linecap="round" stroke-linejoin="round"/>
<path d="M61.8 191.7L67.2 187.5" stroke="#263238" stroke-width="0.6" stroke-miterlimit="10" stroke-linecap="round" stroke-linejoin="round"/>
<path d="M75.7997 174.9C75.7997 174.9 70.3997 177.3 67.5995 178.901" stroke="#263238" stroke-width="0.6" stroke-miterlimit="10" stroke-linecap="round" stroke-linejoin="round"/>
<path d="M73.6001 177.3C73.6001 177.3 68.8001 180.5 66.8003 180.9" stroke="#263238" stroke-width="0.6" stroke-miterlimit="10" stroke-linecap="round" stroke-linejoin="round"/>
<path d="M43.6001 174.9C43.6001 174.9 44.0003 177.5 42.2003 179.9C40.4003 182.3 37.4003 183.7 37.4003 183.7" stroke="#263238" stroke-width="0.6" stroke-miterlimit="10" stroke-linecap="round" stroke-linejoin="round"/>
<path d="M38.3999 173.7C38.3999 173.7 36.7997 184.7 36.7997 190.7C36.7997 196.7 36.5999 202.3 36.5999 202.3" stroke="#263238" stroke-width="0.6" stroke-miterlimit="10" stroke-linecap="round" stroke-linejoin="round"/>
<path d="M35.3999 201.7C35.3999 201.7 36.1997 203.1 41.2001 203.9C46.1999 204.7 49.1999 204.1 49.1999 205.3C49.1999 206.5 48.4001 209.7 48.4001 209.7C48.4001 209.7 44.9999 210.3 41.6003 209.3C38.2001 208.3 35.3999 206.9 35.3999 206.9" stroke="#263238" stroke-width="0.6" stroke-miterlimit="10" stroke-linecap="round" stroke-linejoin="round"/>
<path d="M48.4001 209.7C48.4001 209.7 47.8001 219.101 47.9999 220.301C48.1997 221.501 48.1997 222.501 46.0001 222.3C43.7999 222.101 36.8003 219.3 35.9999 218.1" stroke="#263238" stroke-width="0.6" stroke-miterlimit="10" stroke-linecap="round" stroke-linejoin="round"/>
<path d="M60.4001 192.5L58.3997 223.7" stroke="#263238" stroke-width="0.6" stroke-miterlimit="10" stroke-linecap="round" stroke-linejoin="round"/>
<path d="M75.1998 207.7C75.1998 207.7 75 218.3 75 219.3C75 220.3 74.8002 221.3 76.3998 221.3C78 221.3 80.7996 220.7 81 219.5C81.2004 218.3 79.6002 212.3 79.2 211.1C78.7998 209.9 78.4003 206.7 78.4003 206.7L75.1998 207.7Z" fill="white" stroke="#263238" stroke-width="0.6" stroke-miterlimit="10" stroke-linecap="round" stroke-linejoin="round"/>
<path d="M77.8001 202.9L75.1997 204.5V207.7C75.1997 207.7 79.1999 207.5 79.1999 206.699C79.1999 205.9 77.8001 202.9 77.8001 202.9Z" fill="white" stroke="#263238" stroke-width="0.6" stroke-miterlimit="10" stroke-linecap="round" stroke-linejoin="round"/>
<path d="M48.7499 97.55L49.0499 105.5C49.0499 105.5 47.8499 106.1 46.6499 106.25C45.4499 106.4 40.1999 105.95 35.6999 107C31.1999 108.05 29.0999 111.05 27.8999 112.4C26.6999 113.75 24.7499 116.15 23.0999 117.5C21.4499 118.85 15.7577 123.075 15.7577 123.075L18.9077 132.525C18.9077 132.525 19.2077 133.425 20.1077 133.575C21.0077 133.725 19.6577 133.875 22.2077 132.975C24.7577 132.075 30.1499 128.15 30.1499 128.15L30.8999 130.25L36.2999 129.05C36.2999 129.05 36.2999 150.65 36.4499 156.35C36.5999 162.05 36.2999 168.95 36.1499 170C35.9999 171.05 35.8499 171.95 35.8499 171.95C35.8499 171.95 48.8999 176.3 53.8499 175.7C58.7999 175.1 67.9499 174.35 70.4999 172.7C73.0499 171.05 79.0499 169.1 79.0499 169.1C79.0499 169.1 76.4999 143.75 76.6499 140.9C76.7999 138.05 77.0999 131.9 77.0999 131.9L79.3499 116.75C79.3499 116.75 90.7499 111.05 91.1999 111.05C91.6499 111.05 92.9999 110.6 92.9999 110.6C92.9999 110.6 90.4499 104.75 88.7999 100.55C87.1499 96.35 86.0999 95.45 86.0999 95.45C86.0999 95.45 82.1999 96.95 80.2499 97.7C78.2999 98.45 73.4999 100.4 72.2999 102.2C71.0999 104 69.2999 105.35 69.2999 105.35H64.9499L65.0999 99.5L48.7499 97.55Z" fill="#5472DC" stroke="#263238" stroke-width="0.6" stroke-miterlimit="10" stroke-linecap="round" stroke-linejoin="round"/>
<path d="M65.25 104.9C65.25 104.9 53.1 123.2 46.05 133.4C40.185 141.886 35.1 152 35.1 152L36.6 153.65C36.6 153.65 49.65 136.7 55.8 125.3C61.95 113.9 68.4 105.2 68.4 105.2L65.25 104.9Z" fill="#263238" stroke="#263238" stroke-width="0.6" stroke-miterlimit="10" stroke-linecap="round" stroke-linejoin="round"/>
<path d="M79.3501 116.75L81.0001 106.85" stroke="#263238" stroke-width="0.6" stroke-miterlimit="10" stroke-linecap="round" stroke-linejoin="round"/>
<path d="M77.3125 122.186L77.1001 125" stroke="#263238" stroke-width="0.6" stroke-miterlimit="10" stroke-linecap="round" stroke-linejoin="round"/>
<path d="M78.3 109.1L77.5182 119.459" stroke="#263238" stroke-width="0.6" stroke-miterlimit="10" stroke-linecap="round" stroke-linejoin="round"/>
<path d="M64.0158 123.183C63.6972 123.936 63.3594 124.693 63 125.45L64.0158 123.183Z" fill="white"/>
<path d="M64.0158 123.183C63.6972 123.936 63.3594 124.693 63 125.45" stroke="#263238" stroke-width="0.6" stroke-miterlimit="10" stroke-linecap="round" stroke-linejoin="round"/>
<path d="M68.5501 107.6C68.5501 107.6 67.6441 113.64 65.0071 120.69L68.5501 107.6Z" fill="white"/>
<path d="M68.5501 107.6C68.5501 107.6 67.6441 113.64 65.0071 120.69" stroke="#263238" stroke-width="0.6" stroke-miterlimit="10" stroke-linecap="round" stroke-linejoin="round"/>
<path d="M60.8134 139.757C60.3658 140.637 59.8948 141.52 59.3998 142.4" stroke="#263238" stroke-width="0.6" stroke-miterlimit="10" stroke-linecap="round" stroke-linejoin="round"/>
<path d="M68.4 117.95C68.4 117.95 66.6648 127.553 61.6698 138.02" stroke="#263238" stroke-width="0.6" stroke-miterlimit="10" stroke-linecap="round" stroke-linejoin="round"/>
<path d="M55.6499 135.35C55.6499 135.35 50.9999 143 50.3999 144.65" stroke="#263238" stroke-width="0.6" stroke-miterlimit="10" stroke-linecap="round" stroke-linejoin="round"/>
<path d="M36.3 129.05L41.7 126.8" stroke="#263238" stroke-width="0.6" stroke-miterlimit="10" stroke-linecap="round" stroke-linejoin="round"/>
<path d="M65.7378 105.35H64.95L65.1 99.5L48.75 97.55L49.05 105.5C49.05 105.5 52.2 111.5 57.9 111.65C62.8752 111.781 65.2218 106.655 65.7378 105.35Z" fill="white" stroke="#263238" stroke-width="0.6" stroke-miterlimit="10" stroke-linecap="round" stroke-linejoin="round"/>
<path d="M68.6959 82.1877C68.6959 82.1877 68.2165 96.3303 68.3365 98.9673C68.4565 101.604 65.9395 105.559 63.3025 107.357C60.6655 109.155 57.5497 108.675 55.6321 107.477C53.7145 106.278 50.2387 103.402 49.6393 101.604C49.0399 99.8067 48.5605 92.6151 48.5605 91.6563C48.5605 90.6975 49.3993 86.1429 52.1563 85.0641C54.9127 83.9853 56.2315 82.6671 56.2315 82.6671L55.3927 84.5847C55.3927 84.5847 58.2691 84.3447 59.9473 83.3859C61.6256 82.4271 63.0638 81.1089 63.0638 81.1089L63.1837 82.7871C63.1837 82.7871 65.2213 83.3865 65.9401 82.6671C66.6589 81.9477 67.2583 81.4683 67.2583 81.4683L68.6959 82.1877Z" fill="white" stroke="#263238" stroke-width="0.6" stroke-miterlimit="10" stroke-linecap="round" stroke-linejoin="round"/>
<path d="M57.8742 94.0531C57.8742 94.6747 57.5142 95.1787 57.0702 95.1787C56.6262 95.1787 56.2662 94.6747 56.2662 94.0531C56.2662 93.4315 56.6262 92.9275 57.0702 92.9275C57.5142 92.9275 57.8742 93.4315 57.8742 94.0531Z" fill="#263238"/>
<path d="M66.2527 93.4779C66.2527 94.0995 65.8927 94.6035 65.4487 94.6035C65.0047 94.6035 64.6447 94.0995 64.6447 93.4779C64.6447 92.8563 65.0047 92.3523 65.4487 92.3523C65.8927 92.3523 66.2527 92.8563 66.2527 93.4779Z" fill="#263238"/>
<path d="M60.306 98.8475C60.6654 99.2069 62.823 99.5669 63.3024 98.4881C63.7818 97.4093 62.943 92.6153 62.943 92.6153L63.9018 90.3383C63.9018 90.3383 64.8606 88.6601 67.0182 89.4995" stroke="#263238" stroke-width="0.6" stroke-miterlimit="10" stroke-linecap="round" stroke-linejoin="round"/>
<path d="M63.3024 101.484C63.3024 101.484 60.426 101.604 58.8678 102.323C57.3096 103.042 58.7478 103.282 58.7478 103.282C58.7478 103.282 62.3436 103.282 62.703 102.802C63.0624 102.323 63.5418 102.323 63.3024 101.484Z" stroke="#263238" stroke-width="0.6" stroke-miterlimit="10" stroke-linecap="round" stroke-linejoin="round"/>
<path d="M58.8677 90.9366C58.8677 90.9366 55.8713 90.2172 54.3131 91.296" stroke="#263238" stroke-width="0.6" stroke-miterlimit="10" stroke-linecap="round" stroke-linejoin="round"/>
<path d="M23.0999 117.5C21.4499 118.85 15.7577 123.075 15.7577 123.075L18.9077 132.525C18.9077 132.525 19.2077 133.425 20.1077 133.575C21.0077 133.725 19.6577 133.875 22.2077 132.975C24.7577 132.075 30.1499 128.15 30.1499 128.15L23.9651 116.722C23.6717 117.003 23.3807 117.27 23.0999 117.5Z" stroke="#263238" stroke-width="0.6" stroke-miterlimit="10" stroke-linecap="round" stroke-linejoin="round"/>
<path d="M94.8 77.5999C87.15 76.3999 72.75 76.9999 72.75 76.9999C72.75 76.9999 69 72.3499 67.8 71.1499C66.6 69.9499 66 69.0499 63.75 69.3499C61.5 69.6499 58.95 69.9499 57.9 70.0999C56.85 70.2499 56.85 72.9499 56.85 72.9499C56.85 72.9499 56.85 74.4499 57.9 74.8999C58.95 75.3499 59.4 74.8999 59.4 74.8999L60.15 74.2999L62.85 74.5999L63.4476 75.6457C64.776 76.6339 67.9734 78.9943 69.15 79.6999C70.65 80.5999 72.3 80.2999 74.25 80.8999C76.2 81.4999 81.75 83.7499 85.05 85.5499C88.35 87.3499 91.65 90.1999 91.65 90.1999L86.1276 95.4763C86.2956 95.6407 87.2976 96.7261 88.8 100.55C89.5044 102.343 90.372 104.435 91.1358 106.246C93.7794 103.793 99.5298 98.4343 101.7 95.2999C104.4 91.3999 109.95 84.7999 109.8 83.8999C109.65 82.9999 102.45 78.7999 94.8 77.5999Z" fill="white" stroke="#263238" stroke-width="0.6" stroke-miterlimit="10" stroke-linecap="round" stroke-linejoin="round"/>
<path d="M62.85 70.8503C62.85 70.8503 59.4 72.0503 58.65 72.3503C57.9 72.6503 56.7 72.0503 56.85 72.9503" stroke="#263238" stroke-width="0.6" stroke-miterlimit="10" stroke-linecap="round" stroke-linejoin="round"/>
<path d="M91.6499 90.1999C91.6499 90.1999 94.4999 90.6499 97.9499 88.3999" stroke="#263238" stroke-width="0.6" stroke-miterlimit="10" stroke-linecap="round" stroke-linejoin="round"/>
<path d="M76.2 77.15L75.75 81.35L78.45 82.55L79.2 77L76.2 77.15Z" fill="#263238" stroke="#263238" stroke-width="0.6" stroke-miterlimit="10" stroke-linecap="round" stroke-linejoin="round"/>
<path d="M78.973 76.8483L76.1458 76.6725C75.8794 76.6557 75.6772 76.4265 75.6934 76.1607L75.7276 75.6081C75.7444 75.3417 75.9736 75.1395 76.2394 75.1557L79.0672 75.3315C79.3336 75.3483 79.5358 75.5775 79.5196 75.8433L79.4854 76.3959C79.4686 76.6623 79.2394 76.8645 78.973 76.8483Z" fill="#263238" stroke="#263238" stroke-width="0.6" stroke-miterlimit="10" stroke-linecap="round" stroke-linejoin="round"/>
<path d="M42.4501 94.5499L50.1001 105.35L52.9501 98.8999L45.7501 88.8499L42.4501 94.5499Z" fill="#263238" stroke="#263238" stroke-width="0.6" stroke-miterlimit="10" stroke-linecap="round" stroke-linejoin="round"/>
<path d="M47.4816 100.525C47.4816 100.525 47.6016 106.398 46.4028 108.795C45.204 111.192 24.2646 131.535 21.5076 133.212C18.7506 134.89 14.9154 134.53 14.0766 132.972C13.2378 131.414 12.9978 125.781 14.1966 123.863C15.3948 121.945 39.5712 108.195 40.7694 107.476C41.9682 106.756 41.2488 104.359 41.1288 101.723C41.0088 99.086 41.0088 96.809 41.6082 95.8502C42.2076 94.8914 45.6834 92.015 46.6422 91.5356C47.601 91.0562 49.1592 89.9774 49.5186 91.0562C49.878 92.135 49.2792 92.4944 49.2792 92.4944C49.2792 92.4944 49.9986 92.4944 49.7586 93.8126C49.5186 95.1308 46.7622 97.4084 46.7622 97.4084C46.7622 97.4084 49.7586 96.0902 50.358 95.6108C50.9574 95.1314 51.1968 96.0902 50.478 97.169C49.7592 98.2478 47.6016 99.3266 47.6016 99.3266L47.4816 100.525Z" fill="white" stroke="#263238" stroke-width="0.6" stroke-miterlimit="10" stroke-linecap="round" stroke-linejoin="round"/>
<path d="M49.2793 92.4949C49.2793 92.4949 43.8817 97.0663 43.7071 97.4737C43.5325 97.8811 42.8917 98.6383 42.8917 98.6383" fill="white"/>
<path d="M49.2793 92.4949C49.2793 92.4949 43.8817 97.0663 43.7071 97.4737C43.5325 97.8811 42.8917 98.6383 42.8917 98.6383" stroke="#263238" stroke-width="0.6" stroke-miterlimit="10" stroke-linecap="round" stroke-linejoin="round"/>
<path d="M46.9096 91.5344C46.9096 91.5344 43.1242 95.4944 42.6004 96.3092C42.076 97.1246 41.9014 97.5902 41.9014 97.5902" fill="white"/>
<path d="M46.9096 91.5344C46.9096 91.5344 43.1242 95.4944 42.6004 96.3092C42.076 97.1246 41.9014 97.5902 41.9014 97.5902" stroke="#263238" stroke-width="0.6" stroke-miterlimit="10" stroke-linecap="round" stroke-linejoin="round"/>
<path d="M46.7626 97.4089C46.7626 97.4089 44.8138 98.6389 44.7556 99.0463C44.6974 99.4537 44.5228 99.7453 44.5228 99.7453" fill="white"/>
<path d="M46.7626 97.4089C46.7626 97.4089 44.8138 98.6389 44.7556 99.0463C44.6974 99.4537 44.5228 99.7453 44.5228 99.7453" stroke="#263238" stroke-width="0.6" stroke-miterlimit="10" stroke-linecap="round" stroke-linejoin="round"/>
<path d="M123.3 146.6V202.4" stroke="#263238" stroke-width="2.4" stroke-miterlimit="10" stroke-linecap="round" stroke-linejoin="round"/>
<path d="M143.1 146.6V145.25C143.1 143.179 141.421 141.5 139.35 141.5H127.05C124.979 141.5 123.3 143.179 123.3 145.25V146.6" stroke="#263238" stroke-width="3.6" stroke-miterlimit="10" stroke-linecap="round" stroke-linejoin="round"/>
<path d="M143.1 201.5V146.6" stroke="#263238" stroke-width="2.4" stroke-miterlimit="10" stroke-linecap="round" stroke-linejoin="round"/>
<path d="M126.9 279.5C128.557 279.5 129.9 278.157 129.9 276.5C129.9 274.843 128.557 273.5 126.9 273.5C125.243 273.5 123.9 274.843 123.9 276.5C123.9 278.157 125.243 279.5 126.9 279.5Z" fill="#263238" stroke="#263238" stroke-width="0.6" stroke-miterlimit="10" stroke-linecap="round" stroke-linejoin="round"/>
<path d="M126.566 276.444C125.451 276.444 124.546 275.54 124.546 274.424V270.703H128.586V274.424C128.586 275.54 127.682 276.444 126.566 276.444Z" fill="#636363" stroke="#263238" stroke-width="0.6" stroke-miterlimit="10" stroke-linecap="round" stroke-linejoin="round"/>
<path d="M103.834 279.5C105.491 279.5 106.834 278.157 106.834 276.5C106.834 274.843 105.491 273.5 103.834 273.5C102.177 273.5 100.834 274.843 100.834 276.5C100.834 278.157 102.177 279.5 103.834 279.5Z" fill="#263238" stroke="#263238" stroke-width="0.6" stroke-miterlimit="10" stroke-linecap="round" stroke-linejoin="round"/>
<path d="M103.5 276.444C102.384 276.444 101.48 275.54 101.48 274.424V270.703H105.52V274.424C105.52 275.54 104.615 276.444 103.5 276.444Z" fill="#636363" stroke="#263238" stroke-width="0.6" stroke-miterlimit="10" stroke-linecap="round" stroke-linejoin="round"/>
<path d="M141.3 279.5C142.957 279.5 144.3 278.157 144.3 276.5C144.3 274.843 142.957 273.5 141.3 273.5C139.643 273.5 138.3 274.843 138.3 276.5C138.3 278.157 139.643 279.5 141.3 279.5Z" fill="#263238" stroke="#263238" stroke-width="0.6" stroke-miterlimit="10" stroke-linecap="round" stroke-linejoin="round"/>
<path d="M140.966 276.444C139.85 276.444 138.946 275.54 138.946 274.424V270.703H142.986V274.424C142.986 275.54 142.082 276.444 140.966 276.444Z" fill="#636363" stroke="#263238" stroke-width="0.6" stroke-miterlimit="10" stroke-linecap="round" stroke-linejoin="round"/>
<path d="M117.934 279.5C119.591 279.5 120.934 278.157 120.934 276.5C120.934 274.843 119.591 273.5 117.934 273.5C116.277 273.5 114.934 274.843 114.934 276.5C114.934 278.157 116.277 279.5 117.934 279.5Z" fill="#263238" stroke="#263238" stroke-width="0.6" stroke-miterlimit="10" stroke-linecap="round" stroke-linejoin="round"/>
<path d="M117.6 276.444C116.484 276.444 115.58 275.54 115.58 274.424V270.703H119.62V274.424C119.62 275.54 118.715 276.444 117.6 276.444Z" fill="#636363" stroke="#263238" stroke-width="0.6" stroke-miterlimit="10" stroke-linecap="round" stroke-linejoin="round"/>
<path d="M128.441 272.6H100.089C97.6404 272.6 95.6658 270.358 95.7006 267.618L96.5076 203.943C96.5418 201.257 98.4966 199.1 100.896 199.1H127.634C130.034 199.1 131.989 201.257 132.023 203.943L132.83 267.618C132.864 270.358 130.889 272.6 128.441 272.6Z" fill="#5472DC" stroke="#263238" stroke-width="0.6" stroke-miterlimit="10" stroke-linecap="round" stroke-linejoin="round"/>
<path d="M144.259 272.6H125.07C123.413 272.6 122.076 270.358 122.1 267.618L122.646 203.943C122.669 201.257 123.992 199.1 125.616 199.1H143.713C145.337 199.1 146.66 201.257 146.683 203.943L147.229 267.618C147.253 270.358 145.916 272.6 144.259 272.6Z" fill="#5472DC" stroke="#263238" stroke-width="0.6" stroke-miterlimit="10" stroke-linecap="round" stroke-linejoin="round"/>
<path d="M137.1 199.1H134.4V272.6H137.1V199.1Z" fill="#263238" stroke="#263238" stroke-width="0.6" stroke-miterlimit="10" stroke-linecap="round" stroke-linejoin="round"/>
<path d="M137.1 199.1C132.9 199.7 120 203.3 110.7 203.3C110.454 203.3 110.208 203.3 109.968 203.294C101.07 203.216 95.0821 201.662 94.5001 196.7C94.2121 194.234 95.4661 191.696 97.8241 189.56C100.338 187.286 104.112 185.474 108.6 184.7C117.3 183.2 129 182.3 129 182.3C129 182.3 140.7 181.1 144.3 186.8C147.9 192.5 141.3 198.5 137.1 199.1Z" fill="white" stroke="#263238" stroke-width="0.6" stroke-miterlimit="10" stroke-linecap="round" stroke-linejoin="round"/>
<path d="M128.7 185.3C126.3 186.8 116.4 187.1 109.2 191.3C102 195.5 102 201.8 108.9 203C109.368 203.084 109.722 203.18 109.968 203.294C101.07 203.216 95.0821 201.662 94.5001 196.7C94.2121 194.234 95.4661 191.696 97.8241 189.56C100.578 187.892 103.878 186.65 107.4 186.2C119.1 184.7 125.7 185 125.7 185C125.7 185 131.1 183.8 128.7 185.3Z" fill="white" stroke="#263238" stroke-width="0.6" stroke-miterlimit="10" stroke-linecap="round" stroke-linejoin="round"/>
<path d="M117.26 198.187C125.869 197.107 138.802 195.925 144 191" stroke="#263238" stroke-width="0.6" stroke-miterlimit="10" stroke-linecap="round" stroke-linejoin="round"/>
<path d="M105.6 198.5C105.6 198.5 106.387 199.549 113.352 198.705" stroke="#263238" stroke-width="0.6" stroke-miterlimit="10" stroke-linecap="round" stroke-linejoin="round"/>
<path d="M138 194.3C138 194.3 136.2 196.1 135.3 197.6" stroke="#263238" stroke-width="0.6" stroke-miterlimit="10" stroke-linecap="round" stroke-linejoin="round"/>
<path d="M127.2 196.4C127.2 196.4 127.5 198.2 126.6 199.1" stroke="#263238" stroke-width="0.6" stroke-miterlimit="10" stroke-linecap="round" stroke-linejoin="round"/>
<path d="M94.5 196.7C94.5 196.7 98.4 199.7 102 199.1" stroke="#263238" stroke-width="0.6" stroke-miterlimit="10" stroke-linecap="round" stroke-linejoin="round"/>
</svg>
