<svg width="48" height="48" viewBox="0 0 48 48" fill="none" xmlns="http://www.w3.org/2000/svg">
<g clip-path="url(#clip0_12004_894)">
<path fill-rule="evenodd" clip-rule="evenodd" d="M48 24C48 37.2548 37.2548 48 24 48C10.7452 48 0 37.2548 0 24C0 10.7452 10.7452 0 24 0C37.2548 0 48 10.7452 48 24ZM24 8.5C24.8284 8.5 25.5 9.17157 25.5 10V22.5H38C38.8284 22.5 39.5 23.1716 39.5 24C39.5 24.8284 38.8284 25.5 38 25.5H25.5V38C25.5 38.8284 24.8284 39.5 24 39.5C23.1716 39.5 22.5 38.8284 22.5 38V25.5H10C9.17157 25.5 8.5 24.8284 8.5 24C8.5 23.1716 9.17157 22.5 10 22.5H22.5V10C22.5 9.17157 23.1716 8.5 24 8.5Z" fill="#5472DC"/>
</g>
<defs>
<clipPath id="clip0_12004_894">
<rect width="48" height="48" fill="white"/>
</clipPath>
</defs>
</svg>
